<?xml version="1.0" encoding="UTF-8" standalone="no"?>
<!-- Created with Inkscape (http://www.inkscape.org/) -->

<svg
   xmlns:dc="http://purl.org/dc/elements/1.1/"
   xmlns:cc="http://creativecommons.org/ns#"
   xmlns:rdf="http://www.w3.org/1999/02/22-rdf-syntax-ns#"
   xmlns:svg="http://www.w3.org/2000/svg"
   xmlns="http://www.w3.org/2000/svg"
   xmlns:sodipodi="http://sodipodi.sourceforge.net/DTD/sodipodi-0.dtd"
   xmlns:inkscape="http://www.inkscape.org/namespaces/inkscape"
   width="49"
   height="32"
   viewBox="0 0 48.999999 32"
   id="svg2"
   version="1.1"
   inkscape:version="0.91 r13725"
   sodipodi:docname="buttons.svg">
  <defs
     id="defs4" />
  <sodipodi:namedview
     id="base"
     pagecolor="#ffffff"
     bordercolor="#666666"
     borderopacity="1.0"
     inkscape:pageopacity="0.0"
     inkscape:pageshadow="2"
     inkscape:zoom="11.2"
     inkscape:cx="31.914611"
     inkscape:cy="15.639462"
     inkscape:document-units="px"
     inkscape:current-layer="layer1"
     showgrid="false"
     units="px"
     inkscape:window-width="1500"
     inkscape:window-height="923"
     inkscape:window-x="374"
     inkscape:window-y="31"
     inkscape:window-maximized="0"
     fit-margin-top="0"
     fit-margin-left="0"
     fit-margin-right="0"
     fit-margin-bottom="0" />
  <metadata
     id="metadata7">
    <rdf:RDF>
      <cc:Work
         rdf:about="">
        <dc:format>image/svg+xml</dc:format>
        <dc:type
           rdf:resource="http://purl.org/dc/dcmitype/StillImage" />
        <dc:title />
      </cc:Work>
    </rdf:RDF>
  </metadata>
  <g
     inkscape:label="Layer 1"
     inkscape:groupmode="layer"
     id="layer1"
     transform="translate(-225.71241,-856.40319)">
    <path
       style="fill:#000000;fill-opacity:0.1372549;fill-rule:evenodd;stroke:#000000;stroke-width:2;stroke-linecap:butt;stroke-linejoin:miter;stroke-miterlimit:4;stroke-dasharray:none;stroke-opacity:1"
       d="m 227.0713,860.40229 c 0.2813,1.93253 3.9069,16.30803 11.41195,23.73793 5.32225,4.29491 10.64449,4.55642 15.96675,0 6.86242,-7.43614 11.84382,-21.28852 11.31061,-22.77222 -0.1325,-0.8898 -3.30373,-3.89644 -6.61563,-3.84134 l -27.10281,0 c -3.33029,0.1002 -4.96829,1.60037 -4.97087,2.87563 z"
       id="path4180"
       inkscape:connector-curvature="0"
       sodipodi:nodetypes="ccccccc" />
    <g
       id="g4214">
      <path
         inkscape:connector-curvature="0"
         id="path4182"
         d="m 239.7782,866.16967 0,9.87012 5.81537,0"
         style="fill:none;fill-rule:evenodd;stroke:#000000;stroke-width:1.69010401px;stroke-linecap:butt;stroke-linejoin:miter;stroke-opacity:1" />
      <path
         sodipodi:nodetypes="ccc"
         inkscape:connector-curvature="0"
         id="path4182-9"
         d="m 249.46545,876.88484 0,-9.87012 3.60126,0"
         style="fill:none;fill-rule:evenodd;stroke:#000000;stroke-width:1.69010401px;stroke-linecap:butt;stroke-linejoin:miter;stroke-opacity:1" />
      <path
         sodipodi:nodetypes="cc"
         inkscape:connector-curvature="0"
         id="path4182-9-4"
         d="m 246.08525,867.01472 5.81536,0"
         style="fill:none;fill-rule:evenodd;stroke:#000000;stroke-width:1.69010401px;stroke-linecap:butt;stroke-linejoin:miter;stroke-opacity:1" />
    </g>
    <path
       style="fill:#000000;fill-opacity:0.1372549;fill-rule:evenodd;stroke:#000000;stroke-width:2;stroke-linecap:butt;stroke-linejoin:miter;stroke-miterlimit:4;stroke-dasharray:none;stroke-opacity:1"
       d="m 232.82796,887.29628 35.36326,0 5.26293,-17.26613 c 1.32157,-6.30555 -6.93262,-11.39761 -12.55717,-11.91086 -6.74026,-0.37971 -13.48052,-0.22751 -20.22078,0 -8.5195,-0.0226 -13.63735,5.06161 -13.75752,8.67923 z"
       id="path4219"
       inkscape:connector-curvature="0"
       sodipodi:nodetypes="ccccccc" />
    <path
       style="fill:#000000;fill-rule:evenodd;stroke:#000000;stroke-width:1.60747123px;stroke-linecap:butt;stroke-linejoin:miter;stroke-opacity:1;fill-opacity:0.13725491"
       d="m 256.93271,861.16131 c -2.66638,-1.01488 -19.37998,-3.57281 -23.09932,-3.87727 -4.04983,1.93779 -6.34919,5.10742 -6.74564,9.61612 l 0.14355,10.76432 c -0.12635,3.30155 1.05711,9.11044 5.38217,10.11845 l 26.26492,-3.01401 c 2.74238,-1.24439 2.29434,-2.0161 1.43525,-2.72694 -2.44583,-2.00205 -5.38037,-6.49052 -5.23864,-8.89852 0.11365,-3.26406 0.35614,-5.68028 4.45435,-8.72675 0.90901,-0.52038 -0.25571,-2.24739 -2.59664,-3.2554 z"
       id="path4221"
       inkscape:connector-curvature="0"
       sodipodi:nodetypes="cccccccccc" />
    <g
       id="g4149"
       transform="translate(-31.035727,-5.1964194)">
      <rect
         ry="8.9541931"
         y="867.26147"
         x="258.44336"
         height="20.67627"
         width="45.609554"
         id="rect4223"
         style="color:#000000;display:inline;overflow:visible;visibility:visible;opacity:1;fill:#000000;fill-opacity:0.1372549;fill-rule:evenodd;stroke:#000000;stroke-width:2;stroke-linecap:butt;stroke-linejoin:miter;stroke-miterlimit:4;stroke-dasharray:none;stroke-dashoffset:0;stroke-opacity:1;marker:none;enable-background:accumulate" />
      <path
         inkscape:connector-curvature="0"
         id="path4206-7"
         d="m 285.17661,871.3301 0,12.50344 -11.42429,-6.59582 z"
         style="fill:#b8b8b8;fill-opacity:1;fill-rule:evenodd;stroke:#000000;stroke-width:0.79856527px;stroke-linecap:butt;stroke-linejoin:miter;stroke-opacity:1" />
    </g>
  </g>
</svg>
