<?xml version="1.0" encoding="UTF-8" standalone="no"?>
<!-- Created with Inkscape (http://www.inkscape.org/) -->

<svg
   xmlns:dc="http://purl.org/dc/elements/1.1/"
   xmlns:cc="http://creativecommons.org/ns#"
   xmlns:rdf="http://www.w3.org/1999/02/22-rdf-syntax-ns#"
   xmlns:svg="http://www.w3.org/2000/svg"
   xmlns="http://www.w3.org/2000/svg"
   xmlns:sodipodi="http://sodipodi.sourceforge.net/DTD/sodipodi-0.dtd"
   xmlns:inkscape="http://www.inkscape.org/namespaces/inkscape"
   width="24"
   height="24"
   viewBox="0 0 24 24"
   id="svg2"
   version="1.1"
   inkscape:version="0.91 r13725"
   sodipodi:docname="fake-0.svg">
  <defs
     id="defs4">
    <filter
       style="color-interpolation-filters:sRGB"
       id="filter3798"
       inkscape:label="Glow"
       inkscape:menu="Shadows and Glows"
       inkscape:menu-tooltip="Glow of object's own color at the edges">
      <feGaussianBlur
         id="feGaussianBlur3800"
         stdDeviation="5"
         result="result91" />
      <feComposite
         id="feComposite3802"
         in2="result91"
         in="SourceGraphic"
         operator="over" />
    </filter>
    <linearGradient
       id="linearGradient3759">
      <stop
         style="stop-color:#ffffff;stop-opacity:1;"
         offset="0"
         id="stop3761" />
      <stop
         style="stop-color:#ffffff;stop-opacity:0;"
         offset="1"
         id="stop3763" />
    </linearGradient>
    <filter
       style="color-interpolation-filters:sRGB"
       id="filter4192"
       inkscape:label="Glow"
       inkscape:menu="Shadows and Glows"
       inkscape:menu-tooltip="Glow of object's own color at the edges">
      <feGaussianBlur
         id="feGaussianBlur4194"
         stdDeviation="5"
         result="result91" />
      <feComposite
         id="feComposite4196"
         in2="result91"
         in="SourceGraphic"
         operator="over" />
    </filter>
    <filter
       style="color-interpolation-filters:sRGB"
       id="filter3798-5"
       inkscape:label="Glow"
       inkscape:menu="Shadows and Glows"
       inkscape:menu-tooltip="Glow of object's own color at the edges">
      <feGaussianBlur
         id="feGaussianBlur3800-8"
         stdDeviation="5"
         result="result91" />
      <feComposite
         id="feComposite3802-8"
         in2="result91"
         in="SourceGraphic"
         operator="over" />
    </filter>
    <filter
       style="color-interpolation-filters:sRGB"
       id="filter3798-5-2"
       inkscape:label="Glow"
       inkscape:menu="Shadows and Glows"
       inkscape:menu-tooltip="Glow of object's own color at the edges">
      <feGaussianBlur
         id="feGaussianBlur3800-8-4"
         stdDeviation="5"
         result="result91" />
      <feComposite
         id="feComposite3802-8-9"
         in2="result91"
         in="SourceGraphic"
         operator="over" />
    </filter>
  </defs>
  <sodipodi:namedview
     id="base"
     pagecolor="#ffffff"
     bordercolor="#666666"
     borderopacity="1.0"
     inkscape:pageopacity="0.0"
     inkscape:pageshadow="2"
     inkscape:zoom="22.4"
     inkscape:cx="10.005529"
     inkscape:cy="12.293259"
     inkscape:document-units="px"
     inkscape:current-layer="layer1"
     showgrid="false"
     units="px"
     inkscape:window-width="1800"
     inkscape:window-height="892"
     inkscape:window-x="118"
     inkscape:window-y="0"
     inkscape:window-maximized="0"
     fit-margin-top="0"
     fit-margin-left="0"
     fit-margin-right="0"
     fit-margin-bottom="0" />
  <metadata
     id="metadata7">
    <rdf:RDF>
      <cc:Work
         rdf:about="">
        <dc:format>image/svg+xml</dc:format>
        <dc:type
           rdf:resource="http://purl.org/dc/dcmitype/StillImage" />
        <dc:title />
      </cc:Work>
    </rdf:RDF>
  </metadata>
  <g
     inkscape:groupmode="layer"
     id="layer2"
     inkscape:label="Down"
     style="display:inline"
     transform="translate(-14.528064,-241.23333)" />
  <g
     inkscape:label="Controller"
     inkscape:groupmode="layer"
     id="layer1"
     transform="translate(-240.24047,-784.63652)"
     style="display:inline">
    <path
       style="fill:#003b00;fill-opacity:1;fill-rule:evenodd;stroke:#96ff00;stroke-width:0.21237507;stroke-linecap:butt;stroke-linejoin:miter;stroke-miterlimit:4;stroke-dasharray:none;stroke-opacity:1"
       d="M 11.271484 3.7558594 L 11.271484 3.7636719 C 9.5524643 3.786084 7.6987265 3.7493297 6.1132812 3.8378906 C 4.9749813 3.9062906 4.5967194 3.9152281 3.5683594 4.4863281 C 3.0450594 4.7769481 2.5817675 5.2447231 2.3671875 5.6894531 C 1.8918875 7.0877431 0.54304 12.509519 0.3125 15.068359 C 0.2658 16.575359 0.09881625 18.271168 1.0664062 19.298828 C 1.8191863 20.002648 2.2964319 20.343647 3.1699219 20.654297 C 4.0929619 20.658297 4.4121606 20.702561 5.0878906 19.863281 C 5.9152006 18.440111 6.8225475 16.694844 7.5546875 15.652344 C 8.0644675 15.417584 8.5344144 15.397576 9.2714844 15.384766 C 10.206024 15.364166 9.5342375 15.349031 11.460938 15.332031 L 11.460938 15.330078 C 12.992664 15.322425 12.471858 15.338744 14.703125 15.384766 C 15.440195 15.397576 15.910142 15.417584 16.419922 15.652344 C 17.152072 16.694844 18.059409 18.440111 18.886719 19.863281 C 19.562439 20.702561 19.881647 20.658297 20.804688 20.654297 C 21.678188 20.343647 22.157386 20.002648 22.910156 19.298828 C 23.877756 18.271168 23.708809 16.575359 23.662109 15.068359 C 23.431569 12.509519 22.084675 7.0877431 21.609375 5.6894531 C 21.394785 5.2447231 20.931503 4.7769481 20.408203 4.4863281 C 19.379833 3.9151981 17.519159 3.8945719 16.380859 3.8261719 C 14.757129 3.7352719 13.025014 3.7819594 11.271484 3.7558594 z "
       transform="translate(240.24047,784.63652)"
       id="path4166-6" />
    <g
       id="g4196"
       transform="matrix(0.05309377,0,0,0.05309377,228.42169,758.2299)">
      <path
         sodipodi:nodetypes="cccccccccc"
         inkscape:connector-curvature="0"
         id="LGRIP"
         d="m 390.63272,648.81596 c -11.78993,-4.4875 -85.69242,-15.79789 -102.13822,-17.14412 -17.90712,8.56832 -28.0742,22.58347 -29.82718,42.51958 l 0.63474,47.59657 c -0.55869,14.59846 4.67422,40.28362 23.79833,44.74073 l 116.13554,-13.32704 c 12.12598,-5.50232 10.14488,-8.91459 6.34624,-12.05771 -10.81472,-8.85246 -23.79037,-28.69912 -23.16368,-39.34656 0.50253,-14.43269 1.57474,-25.11649 19.69579,-38.58706 4.01937,-2.30096 -1.13067,-9.93728 -11.48156,-14.39439 z"
         style="opacity:0;fill:#000000;fill-opacity:0.1372549;fill-rule:evenodd;stroke:#000000;stroke-width:7.10775232px;stroke-linecap:butt;stroke-linejoin:miter;stroke-opacity:0.28638497" />
      <path
         sodipodi:nodetypes="cccccccccc"
         inkscape:connector-curvature="0"
         id="RGRIP"
         d="m 504.50639,648.81596 c 11.78993,-4.4875 85.69242,-15.79789 102.13822,-17.14412 17.90712,8.56832 28.0742,22.58347 29.82718,42.51958 l -0.63474,47.59657 c 0.55869,14.59846 -4.67422,40.28362 -23.79833,44.74073 L 495.90318,753.20168 c -12.12598,-5.50232 -10.14488,-8.91459 -6.34624,-12.05771 10.81472,-8.85246 23.79037,-28.69912 23.16368,-39.34656 -0.50253,-14.43269 -1.57474,-25.11649 -19.69579,-38.58706 -4.01937,-2.30096 1.13067,-9.93728 11.48156,-14.39439 z"
         style="opacity:0;fill:#000000;fill-opacity:0.1372549;fill-rule:evenodd;stroke:#000000;stroke-width:7.10775232px;stroke-linecap:butt;stroke-linejoin:miter;stroke-opacity:0.28638497" />
    </g>
  </g>
  <g
     inkscape:groupmode="layer"
     id="layer3"
     inkscape:label="Up"
     transform="translate(-14.528064,-241.23333)"
     style="display:inline" />
</svg>
