<svg xmlns="http://www.w3.org/2000/svg" xmlns:dc="http://purl.org/dc/elements/1.1/" xmlns:ns1="http://sodipodi.sourceforge.net/DTD/sodipodi-0.dtd" xmlns:ns2="http://www.inkscape.org/namespaces/inkscape" xmlns:ns4="http://creativecommons.org/ns#" xmlns:rdf="http://www.w3.org/1999/02/22-rdf-syntax-ns#" height="24" id="svg2" version="1.1" viewBox="0 0 24 24" width="24" ns1:docname="sc-0.svg" ns2:version="0.91 r13725">
  <defs id="defs4">
    <filter id="filter3798" style="color-interpolation-filters:sRGB" ns2:label="Glow" ns2:menu="Shadows and Glows" ns2:menu-tooltip="Glow of object's own color at the edges">
      <feGaussianBlur id="feGaussianBlur3800" result="result91" stdDeviation="5" />
      <feComposite id="feComposite3802" in="SourceGraphic" in2="result91" operator="over" />
    </filter>
    <linearGradient id="linearGradient3759">
      <stop id="stop3761" offset="0" style="stop-color:#ffffff;stop-opacity:1;" />
      <stop id="stop3763" offset="1" style="stop-color:#ffffff;stop-opacity:0;" />
    </linearGradient>
    <filter id="filter4192" style="color-interpolation-filters:sRGB" ns2:label="Glow" ns2:menu="Shadows and Glows" ns2:menu-tooltip="Glow of object's own color at the edges">
      <feGaussianBlur id="feGaussianBlur4194" result="result91" stdDeviation="5" />
      <feComposite id="feComposite4196" in="SourceGraphic" in2="result91" operator="over" />
    </filter>
    <filter id="filter3798-5" style="color-interpolation-filters:sRGB" ns2:label="Glow" ns2:menu="Shadows and Glows" ns2:menu-tooltip="Glow of object's own color at the edges">
      <feGaussianBlur id="feGaussianBlur3800-8" result="result91" stdDeviation="5" />
      <feComposite id="feComposite3802-8" in="SourceGraphic" in2="result91" operator="over" />
    </filter>
    <filter id="filter3798-5-2" style="color-interpolation-filters:sRGB" ns2:label="Glow" ns2:menu="Shadows and Glows" ns2:menu-tooltip="Glow of object's own color at the edges">
      <feGaussianBlur id="feGaussianBlur3800-8-4" result="result91" stdDeviation="5" />
      <feComposite id="feComposite3802-8-9" in="SourceGraphic" in2="result91" operator="over" />
    </filter>
  </defs>
  <ns1:namedview bordercolor="#666666" borderopacity="1.0" fit-margin-bottom="0" fit-margin-left="0" fit-margin-right="0" fit-margin-top="0" id="base" pagecolor="#ffffff" showgrid="false" units="px" ns2:current-layer="layer1" ns2:cx="2.9054821" ns2:cy="14.292288" ns2:document-units="px" ns2:pageopacity="0.0" ns2:pageshadow="2" ns2:window-height="1234" ns2:window-maximized="0" ns2:window-width="1959" ns2:window-x="2986" ns2:window-y="86" ns2:zoom="32" />
  <metadata id="metadata7">
    <rdf:RDF>
      <ns4:Work rdf:about="">
        <dc:format>image/svg+xml</dc:format>
        <dc:type rdf:resource="http://purl.org/dc/dcmitype/StillImage" />
        <dc:title />
      </ns4:Work>
    </rdf:RDF>
  </metadata>
  <g id="layer1" style="display:inline" transform="translate(-240.24047,-784.63652)" ns2:groupmode="layer" ns2:label="Controller">
    <path d="M 11.271484 3.7558594 L 11.271484 3.7636719 C 9.5524643 3.786084 7.6987265 3.7493297 6.1132812 3.8378906 C 4.9749813 3.9062906 4.5967194 3.9152281 3.5683594 4.4863281 C 3.0450594 4.7769481 2.5817675 5.2447231 2.3671875 5.6894531 C 1.8918875 7.0877431 0.54304 12.509519 0.3125 15.068359 C 0.2658 16.575359 0.09881625 18.271168 1.0664062 19.298828 C 1.8191863 20.002648 2.2964319 20.343647 3.1699219 20.654297 C 4.0929619 20.658297 4.4121606 20.702561 5.0878906 19.863281 C 5.9152006 18.440111 6.8225475 16.694844 7.5546875 15.652344 C 8.0644675 15.417584 8.5344144 15.397576 9.2714844 15.384766 C 10.206024 15.364166 9.5342375 15.349031 11.460938 15.332031 L 11.460938 15.330078 C 12.992664 15.322425 12.471858 15.338744 14.703125 15.384766 C 15.440195 15.397576 15.910142 15.417584 16.419922 15.652344 C 17.152072 16.694844 18.059409 18.440111 18.886719 19.863281 C 19.562439 20.702561 19.881647 20.658297 20.804688 20.654297 C 21.678188 20.343647 22.157386 20.002648 22.910156 19.298828 C 23.877756 18.271168 23.708809 16.575359 23.662109 15.068359 C 23.431569 12.509519 22.084675 7.0877431 21.609375 5.6894531 C 21.394785 5.2447231 20.931503 4.7769481 20.408203 4.4863281 C 19.379833 3.9151981 17.519159 3.8945719 16.380859 3.8261719 C 14.757129 3.7352719 13.025014 3.7819594 11.271484 3.7558594 z " id="path4166-6" style="stroke-linejoin:miter;stroke-opacity:1;fill-rule:evenodd;fill-opacity:1;stroke:#7792ff;stroke-linecap:butt;stroke-miterlimit:4;stroke-dasharray:none;stroke-width:0.7;fill:#00135f" transform="translate(240.24047,784.63652)" />
    <circle cx="258.44638" cy="793.47229" id="RPAD" r="3.0567439" style="opacity:1;stroke-linejoin:miter;enable-background:accumulate;stroke-opacity:1;fill-opacity:1;color:#000000;fill-rule:evenodd;stroke-dashoffset:0;visibility:visible;stroke:#7792ff;stroke-linecap:butt;stroke-miterlimit:4;marker:none;stroke-dasharray:none;overflow:visible;stroke-width:0.5;display:inline;fill:#000828" />
    <path d="m 252.21899,791.51933 a 0.95251369,0.95251369 0 0 0 -0.88282,0.59571 l -0.49414,0 c -0.23027,0 -0.41601,0.18574 -0.41601,0.41601 0,0.23027 0.18574,0.41406 0.41601,0.41406 l 0.55274,0 a 0.95251369,0.95251369 0 0 0 0.82422,0.48047 0.95251369,0.95251369 0 0 0 0.86132,-0.55078 l 0.5586,0 c 0.23027,0 0.41601,-0.18379 0.41601,-0.41406 0,-0.23027 -0.18574,-0.41602 -0.41601,-0.41602 l -0.56836,0 a 0.95251369,0.95251369 0 0 0 -0.85156,-0.52539 z" id="C" style="opacity:1;stroke-linejoin:miter;enable-background:accumulate;stroke-opacity:1;fill-opacity:1;color:#000000;fill-rule:evenodd;stroke-dashoffset:0;visibility:visible;stroke:#7792ff;stroke-linecap:butt;stroke-miterlimit:4;marker:none;stroke-dasharray:none;overflow:visible;stroke-width:0.1;display:inline;fill:#000726" ns2:connector-curvature="0" />
    <g id="LPAD" style="stroke-opacity:1;fill-opacity:1;stroke:#7792ff;stroke-miterlimit:4;stroke-dasharray:none;stroke-width:9.41730075;fill:#000828" transform="matrix(0.05309377,0,0,0.05309377,228.91262,758.9833)">
      <circle cx="325.74435" cy="649.58276" id="circle4232" r="57.572552" style="opacity:1;stroke-linejoin:miter;enable-background:accumulate;stroke-opacity:1;fill-opacity:1;color:#000000;fill-rule:evenodd;stroke-dashoffset:0;visibility:visible;stroke:#7792ff;stroke-linecap:butt;stroke-miterlimit:4;marker:none;stroke-dasharray:none;overflow:visible;stroke-width:9.41730075;display:inline;fill:#000828" />
      <path d="m 325.74435,600.83276 c -5.63893,0 -10.17871,4.53978 -10.17871,10.17871 l 0,28.39356 -28.39258,0 c -5.63893,0 -10.17871,4.53881 -10.17871,10.17773 0,5.63893 4.53978,10.17871 10.17871,10.17871 l 28.39258,0 0,28.39356 c 0,5.63893 4.53978,10.17773 10.17871,10.17773 5.63892,0 10.17871,-4.5388 10.17871,-10.17773 l 0,-28.39356 28.39258,0 c 5.63893,0 10.17871,-4.53978 10.17871,-10.17871 0,-5.63892 -4.53978,-10.17773 -10.17871,-10.17773 l -28.39258,0 0,-28.39356 c 0,-5.63893 -4.53979,-10.17871 -10.17871,-10.17871 z" id="rect4249" style="opacity:1;stroke-linejoin:miter;enable-background:accumulate;stroke-opacity:1;fill-opacity:1;color:#000000;fill-rule:evenodd;stroke-dashoffset:0;visibility:visible;stroke:#001158;stroke-linecap:butt;stroke-miterlimit:4;marker:none;stroke-dasharray:none;overflow:visible;stroke-width:5.65038045;display:inline;fill:#000828" ns2:connector-curvature="0" />
    </g>
    <path d="m 261.27767,789.41108 c -0.13575,-0.48548 -0.25966,-1.31654 -1.93903,-1.55843 -0.69709,-0.0965 -1.65683,-0.26338 -2.55507,-0.19188 -0.3335,0.0403 -0.45921,0.45197 -0.54586,0.64245 1.63244,0.10407 3.83734,0.0869 5.03996,1.10786 z" id="RB" style="stroke-linejoin:miter;stroke-opacity:1;fill-rule:evenodd;fill-opacity:1;stroke:#7792ff;stroke-linecap:butt;stroke-miterlimit:4;stroke-dasharray:none;stroke-width:0.74563211;fill:#00125c" ns1:nodetypes="ccccc" ns2:connector-curvature="0" />
    <path LT="path4420-4" d="m 243.19754,789.41108 c 0.13573,-0.48548 0.25964,-1.31654 1.93901,-1.55843 0.69709,-0.0965 1.65683,-0.26338 2.55508,-0.19188 0.33349,0.0403 0.4592,0.45197 0.54586,0.64245 -1.63244,0.10407 -3.83733,0.0869 -5.03995,1.10786 z" id="LB" style="stroke-linejoin:miter;stroke-opacity:1;fill-rule:evenodd;fill-opacity:1;stroke:#7792ff;stroke-linecap:butt;stroke-miterlimit:4;stroke-dasharray:none;stroke-width:0.74563211;fill:#00125c" ns1:nodetypes="ccccc" ns2:connector-curvature="0" />
    <circle cx="253.80658" cy="795.71283" id="path4170-0" r="0.83794421" style="opacity:1;stroke-linejoin:miter;enable-background:accumulate;stroke-opacity:1;fill-opacity:1;color:#000000;fill-rule:evenodd;stroke-dashoffset:0;visibility:visible;stroke:#7792ff;stroke-linecap:butt;stroke-miterlimit:4;marker:none;stroke-dasharray:none;overflow:visible;stroke-width:0.12986854;display:inline;fill:#000726" />
    <circle cx="252.34523" cy="797.08453" id="path4170-0-8-4" r="0.83794421" style="opacity:1;stroke-linejoin:miter;enable-background:accumulate;stroke-opacity:1;fill-opacity:1;color:#000000;fill-rule:evenodd;stroke-dashoffset:0;visibility:visible;stroke:#7792ff;stroke-linecap:butt;stroke-miterlimit:4;marker:none;stroke-dasharray:none;overflow:visible;stroke-width:0.12986854;display:inline;fill:#000726" />
    <circle cx="253.80658" cy="798.56909" id="path4170-0-8" r="0.83794421" style="opacity:1;stroke-linejoin:miter;enable-background:accumulate;stroke-opacity:1;fill-opacity:1;color:#000000;fill-rule:evenodd;stroke-dashoffset:0;visibility:visible;stroke:#7792ff;stroke-linecap:butt;stroke-miterlimit:4;marker:none;stroke-dasharray:none;overflow:visible;stroke-width:0.12986854;display:inline;fill:#000726" />
    <circle cx="255.2957" cy="797.08453" id="path4170-0-8-4-6" r="0.83794421" style="opacity:1;stroke-linejoin:miter;enable-background:accumulate;stroke-opacity:1;fill-opacity:1;color:#000000;fill-rule:evenodd;stroke-dashoffset:0;visibility:visible;stroke:#7792ff;stroke-linecap:butt;stroke-miterlimit:4;marker:none;stroke-dasharray:none;overflow:visible;stroke-width:0.12986854;display:inline;fill:#000726" />
    <g id="g4196" transform="matrix(0.05309377,0,0,0.05309377,228.42169,758.2299)">
      <path d="m 390.63272,648.81596 c -11.78993,-4.4875 -85.69242,-15.79789 -102.13822,-17.14412 -17.90712,8.56832 -28.0742,22.58347 -29.82718,42.51958 l 0.63474,47.59657 c -0.55869,14.59846 4.67422,40.28362 23.79833,44.74073 l 116.13554,-13.32704 c 12.12598,-5.50232 10.14488,-8.91459 6.34624,-12.05771 -10.81472,-8.85246 -23.79037,-28.69912 -23.16368,-39.34656 0.50253,-14.43269 1.57474,-25.11649 19.69579,-38.58706 4.01937,-2.30096 -1.13067,-9.93728 -11.48156,-14.39439 z" id="LGRIP" style="opacity:0;stroke-linejoin:miter;stroke-opacity:0.28638497;fill-rule:evenodd;fill-opacity:0.1372549;stroke:#000000;stroke-linecap:butt;stroke-width:7.10775232px;fill:#000000" ns1:nodetypes="cccccccccc" ns2:connector-curvature="0" />
      <path d="m 504.50639,648.81596 c 11.78993,-4.4875 85.69242,-15.79789 102.13822,-17.14412 17.90712,8.56832 28.0742,22.58347 29.82718,42.51958 l -0.63474,47.59657 c 0.55869,14.59846 -4.67422,40.28362 -23.79833,44.74073 L 495.90318,753.20168 c -12.12598,-5.50232 -10.14488,-8.91459 -6.34624,-12.05771 10.81472,-8.85246 23.79037,-28.69912 23.16368,-39.34656 -0.50253,-14.43269 -1.57474,-25.11649 -19.69579,-38.58706 -4.01937,-2.30096 1.13067,-9.93728 11.48156,-14.39439 z" id="RGRIP" style="opacity:0;stroke-linejoin:miter;stroke-opacity:0.28638497;fill-rule:evenodd;fill-opacity:0.1372549;stroke:#000000;stroke-linecap:butt;stroke-width:7.10775232px;fill:#000000" ns1:nodetypes="cccccccccc" ns2:connector-curvature="0" />
    </g>
  </g>
</svg>