<svg xmlns="http://www.w3.org/2000/svg" xmlns:dc="http://purl.org/dc/elements/1.1/" xmlns:ns1="http://sodipodi.sourceforge.net/DTD/sodipodi-0.dtd" xmlns:ns2="http://www.inkscape.org/namespaces/inkscape" xmlns:ns4="http://creativecommons.org/ns#" xmlns:rdf="http://www.w3.org/1999/02/22-rdf-syntax-ns#" height="24" id="svg2" version="1.1" viewBox="0 0 24 24" width="24" ns1:docname="sc-0.svg" ns2:version="0.91 r13725">
  <defs id="defs4">
    <filter id="filter3798" style="color-interpolation-filters:sRGB" ns2:label="Glow" ns2:menu="Shadows and Glows" ns2:menu-tooltip="Glow of object's own color at the edges">
      <feGaussianBlur id="feGaussianBlur3800" result="result91" stdDeviation="5" />
      <feComposite id="feComposite3802" in="SourceGraphic" in2="result91" operator="over" />
    </filter>
    <linearGradient id="linearGradient3759">
      <stop id="stop3761" offset="0" style="stop-color:#ffffff;stop-opacity:1;" />
      <stop id="stop3763" offset="1" style="stop-color:#ffffff;stop-opacity:0;" />
    </linearGradient>
    <filter id="filter4192" style="color-interpolation-filters:sRGB" ns2:label="Glow" ns2:menu="Shadows and Glows" ns2:menu-tooltip="Glow of object's own color at the edges">
      <feGaussianBlur id="feGaussianBlur4194" result="result91" stdDeviation="5" />
      <feComposite id="feComposite4196" in="SourceGraphic" in2="result91" operator="over" />
    </filter>
    <filter id="filter3798-5" style="color-interpolation-filters:sRGB" ns2:label="Glow" ns2:menu="Shadows and Glows" ns2:menu-tooltip="Glow of object's own color at the edges">
      <feGaussianBlur id="feGaussianBlur3800-8" result="result91" stdDeviation="5" />
      <feComposite id="feComposite3802-8" in="SourceGraphic" in2="result91" operator="over" />
    </filter>
    <filter id="filter3798-5-2" style="color-interpolation-filters:sRGB" ns2:label="Glow" ns2:menu="Shadows and Glows" ns2:menu-tooltip="Glow of object's own color at the edges">
      <feGaussianBlur id="feGaussianBlur3800-8-4" result="result91" stdDeviation="5" />
      <feComposite id="feComposite3802-8-9" in="SourceGraphic" in2="result91" operator="over" />
    </filter>
  </defs>
  <ns1:namedview bordercolor="#666666" borderopacity="1.0" fit-margin-bottom="0" fit-margin-left="0" fit-margin-right="0" fit-margin-top="0" id="base" pagecolor="#ffffff" showgrid="false" units="px" ns2:current-layer="layer1" ns2:cx="14.160386" ns2:cy="13.408427" ns2:document-units="px" ns2:pageopacity="0.0" ns2:pageshadow="2" ns2:window-height="892" ns2:window-maximized="0" ns2:window-width="1800" ns2:window-x="118" ns2:window-y="0" ns2:zoom="63.356768" />
  <metadata id="metadata7">
    <rdf:RDF>
      <ns4:Work rdf:about="">
        <dc:format>image/svg+xml</dc:format>
        <dc:type rdf:resource="http://purl.org/dc/dcmitype/StillImage" />
        <dc:title />
      </ns4:Work>
    </rdf:RDF>
  </metadata>
  <g id="layer2" style="display:inline" transform="translate(-14.528064,-241.23333)" ns2:groupmode="layer" ns2:label="Down" />
  <g id="layer1" style="display:inline" transform="translate(-240.24047,-784.63652)" ns2:groupmode="layer" ns2:label="Controller">
    <path d="M 11.271484 3.7558594 L 11.271484 3.7636719 C 9.5524643 3.786084 7.6987265 3.7493297 6.1132812 3.8378906 C 4.9749813 3.9062906 4.5967194 3.9152281 3.5683594 4.4863281 C 3.0450594 4.7769481 2.5817675 5.2447231 2.3671875 5.6894531 C 1.8918875 7.0877431 0.54304 12.509519 0.3125 15.068359 C 0.2658 16.575359 0.09881625 18.271168 1.0664062 19.298828 C 1.8191863 20.002648 2.2964319 20.343647 3.1699219 20.654297 C 4.0929619 20.658297 4.4121606 20.702561 5.0878906 19.863281 C 5.9152006 18.440111 6.8225475 16.694844 7.5546875 15.652344 C 8.0644675 15.417584 8.5344144 15.397576 9.2714844 15.384766 C 10.206024 15.364166 9.5342375 15.349031 11.460938 15.332031 L 11.460938 15.330078 C 12.992664 15.322425 12.471858 15.338744 14.703125 15.384766 C 15.440195 15.397576 15.910142 15.417584 16.419922 15.652344 C 17.152072 16.694844 18.059409 18.440111 18.886719 19.863281 C 19.562439 20.702561 19.881647 20.658297 20.804688 20.654297 C 21.678188 20.343647 22.157386 20.002648 22.910156 19.298828 C 23.877756 18.271168 23.708809 16.575359 23.662109 15.068359 C 23.431569 12.509519 22.084675 7.0877431 21.609375 5.6894531 C 21.394785 5.2447231 20.931503 4.7769481 20.408203 4.4863281 C 19.379833 3.9151981 17.519159 3.8945719 16.380859 3.8261719 C 14.757129 3.7352719 13.025014 3.7819594 11.271484 3.7558594 z " id="path4166-6" style="stroke-linejoin:miter;stroke-opacity:1;fill-rule:evenodd;fill-opacity:1;stroke:#ff0063;stroke-linecap:butt;stroke-miterlimit:4;stroke-dasharray:none;stroke-width:0.21237507;fill:#3b0b00" transform="translate(240.24047,784.63652)" />
    <circle cx="258.86618" cy="792.87543" id="RPAD" r="3.0567439" style="opacity:1;stroke-linejoin:miter;enable-background:accumulate;stroke-opacity:1;fill-opacity:1;color:#000000;fill-rule:evenodd;stroke-dashoffset:0;visibility:visible;stroke:#ff0028;stroke-linecap:butt;stroke-miterlimit:4;marker:none;stroke-dasharray:none;overflow:visible;stroke-width:0.307;display:inline;fill:#5e1200" />
    <circle cx="252.25592" cy="792.47217" id="C" r="0.95251369" style="opacity:1;stroke-linejoin:miter;enable-background:accumulate;stroke-opacity:1;fill-opacity:1;color:#000000;fill-rule:evenodd;stroke-dashoffset:0;visibility:visible;stroke:#ff0028;stroke-linecap:butt;stroke-miterlimit:4;marker:none;stroke-dasharray:none;overflow:visible;stroke-width:0.2;display:inline;fill:#260700" />
    <rect height="0.83130854" id="rect4172" ry="0.41565427" style="opacity:1;stroke-linejoin:miter;enable-background:accumulate;stroke-opacity:1;fill-opacity:1;color:#000000;fill-rule:evenodd;stroke-dashoffset:0;visibility:visible;stroke:#ff0028;stroke-linecap:butt;stroke-miterlimit:4;marker:none;stroke-dasharray:none;overflow:visible;stroke-width:0.2;display:inline;fill:#260700" width="1.4749023" x="253.55664" y="792.38013" />
    <rect height="0.83130854" id="rect4172-1" ry="0.41565427" style="opacity:1;stroke-linejoin:miter;enable-background:accumulate;stroke-opacity:1;fill-opacity:1;color:#000000;fill-rule:evenodd;stroke-dashoffset:0;visibility:visible;stroke:#ff0028;stroke-linecap:butt;stroke-miterlimit:4;marker:none;stroke-dasharray:none;overflow:visible;stroke-width:0.2;display:inline;fill:#260700" transform="scale(-1,1)" width="1.4749023" x="-250.99263" y="792.38013" />
    <g id="LPAD" style="stroke:#ff0028;fill-opacity:1;stroke-opacity:1;fill:#5e1200" transform="matrix(0.05309377,0,0,0.05309377,228.40432,758.3866)">
      <circle cx="325.74435" cy="649.58276" id="circle4232" r="57.572552" style="opacity:1;stroke-linejoin:miter;enable-background:accumulate;stroke-opacity:1;fill-opacity:1;color:#000000;fill-rule:evenodd;stroke-dashoffset:0;visibility:visible;stroke:#ff0028;stroke-linecap:butt;stroke-miterlimit:4;marker:none;stroke-dasharray:none;overflow:visible;stroke-width:5.78222266;display:inline;fill:#5e1200" />
      <path d="m 325.74435,600.83276 c -5.63893,0 -10.17871,4.53978 -10.17871,10.17871 l 0,28.39356 -28.39258,0 c -5.63893,0 -10.17871,4.53881 -10.17871,10.17773 0,5.63893 4.53978,10.17871 10.17871,10.17871 l 28.39258,0 0,28.39356 c 0,5.63893 4.53978,10.17773 10.17871,10.17773 5.63892,0 10.17871,-4.5388 10.17871,-10.17773 l 0,-28.39356 28.39258,0 c 5.63893,0 10.17871,-4.53978 10.17871,-10.17871 0,-5.63892 -4.53978,-10.17773 -10.17871,-10.17773 l -28.39258,0 0,-28.39356 c 0,-5.63893 -4.53979,-10.17871 -10.17871,-10.17871 z" id="rect4249" style="opacity:0.39899998;stroke-linejoin:miter;enable-background:accumulate;stroke-opacity:1;fill-opacity:1;color:#000000;fill-rule:evenodd;stroke-dashoffset:0;visibility:visible;stroke:#ff0028;stroke-linecap:butt;stroke-miterlimit:4;marker:none;stroke-dasharray:none;overflow:visible;stroke-width:1;display:inline;fill:#5e1200" ns2:connector-curvature="0" />
    </g>
    <path d="m 261.18712,789.4767 c -0.12744,-0.45577 -0.24376,-1.23597 -1.82036,-1.46306 -0.65443,-0.0906 -1.55543,-0.24726 -2.3987,-0.18014 -0.31309,0.0378 -0.43111,0.42431 -0.51245,0.60314 1.53253,0.0977 3.60249,0.0816 4.73151,1.04006 z" id="RB" style="stroke-linejoin:miter;stroke-opacity:1;fill-rule:evenodd;fill-opacity:1;stroke:#ff0063;stroke-linecap:butt;stroke-miterlimit:4;stroke-dasharray:none;stroke-width:0.15928131;fill:#280700" ns1:nodetypes="ccccc" ns2:connector-curvature="0" />
    <path LT="path4420-4" d="m 243.1555,789.4767 c 0.12743,-0.45577 0.24375,-1.23597 1.82035,-1.46306 0.65443,-0.0906 1.55543,-0.24726 2.39871,-0.18014 0.31308,0.0378 0.4311,0.42431 0.51245,0.60314 -1.53253,0.0977 -3.60249,0.0816 -4.73151,1.04006 z" id="LB" style="stroke-linejoin:miter;stroke-opacity:1;fill-rule:evenodd;fill-opacity:1;stroke:#ff0063;stroke-linecap:butt;stroke-miterlimit:4;stroke-dasharray:none;stroke-width:0.15928131;fill:#280700" ns1:nodetypes="ccccc" ns2:connector-curvature="0" />
    <circle cx="255.17328" cy="795.15808" id="path4170-0" r="0.64522499" style="opacity:1;stroke-linejoin:miter;enable-background:accumulate;stroke-opacity:1;fill-opacity:1;color:#000000;fill-rule:evenodd;stroke-dashoffset:0;visibility:visible;stroke:#ff0028;stroke-linecap:butt;stroke-miterlimit:4;marker:none;stroke-dasharray:none;overflow:visible;stroke-width:0.2;display:inline;fill:#260700" />
    <circle cx="253.79283" cy="796.52905" id="path4170-0-8-4" r="0.64522499" style="opacity:1;stroke-linejoin:miter;enable-background:accumulate;stroke-opacity:1;fill-opacity:1;color:#000000;fill-rule:evenodd;stroke-dashoffset:0;visibility:visible;stroke:#ff0028;stroke-linecap:butt;stroke-miterlimit:4;marker:none;stroke-dasharray:none;overflow:visible;stroke-width:0.2;display:inline;fill:#260700" />
    <circle cx="255.17328" cy="797.91895" id="path4170-0-8" r="0.64522499" style="opacity:1;stroke-linejoin:miter;enable-background:accumulate;stroke-opacity:1;fill-opacity:1;color:#000000;fill-rule:evenodd;stroke-dashoffset:0;visibility:visible;stroke:#ff0028;stroke-linecap:butt;stroke-miterlimit:4;marker:none;stroke-dasharray:none;overflow:visible;stroke-width:0.2;display:inline;fill:#260700" />
    <circle cx="256.44751" cy="796.52905" id="path4170-0-8-4-6" r="0.64522499" style="opacity:1;stroke-linejoin:miter;enable-background:accumulate;stroke-opacity:1;fill-opacity:1;color:#000000;fill-rule:evenodd;stroke-dashoffset:0;visibility:visible;stroke:#ff0028;stroke-linecap:butt;stroke-miterlimit:4;marker:none;stroke-dasharray:none;overflow:visible;stroke-width:0.2;display:inline;fill:#260700" />
    <g id="g4196" transform="matrix(0.05309377,0,0,0.05309377,228.42169,758.2299)">
      <path d="m 390.63272,648.81596 c -11.78993,-4.4875 -85.69242,-15.79789 -102.13822,-17.14412 -17.90712,8.56832 -28.0742,22.58347 -29.82718,42.51958 l 0.63474,47.59657 c -0.55869,14.59846 4.67422,40.28362 23.79833,44.74073 l 116.13554,-13.32704 c 12.12598,-5.50232 10.14488,-8.91459 6.34624,-12.05771 -10.81472,-8.85246 -23.79037,-28.69912 -23.16368,-39.34656 0.50253,-14.43269 1.57474,-25.11649 19.69579,-38.58706 4.01937,-2.30096 -1.13067,-9.93728 -11.48156,-14.39439 z" id="LGRIP" style="opacity:0;stroke-linejoin:miter;stroke-opacity:0.28638497;fill-rule:evenodd;fill-opacity:0.1372549;stroke:#000000;stroke-linecap:butt;stroke-width:7.10775232px;fill:#000000" ns1:nodetypes="cccccccccc" ns2:connector-curvature="0" />
      <path d="m 504.50639,648.81596 c 11.78993,-4.4875 85.69242,-15.79789 102.13822,-17.14412 17.90712,8.56832 28.0742,22.58347 29.82718,42.51958 l -0.63474,47.59657 c 0.55869,14.59846 -4.67422,40.28362 -23.79833,44.74073 L 495.90318,753.20168 c -12.12598,-5.50232 -10.14488,-8.91459 -6.34624,-12.05771 10.81472,-8.85246 23.79037,-28.69912 23.16368,-39.34656 -0.50253,-14.43269 -1.57474,-25.11649 -19.69579,-38.58706 -4.01937,-2.30096 1.13067,-9.93728 11.48156,-14.39439 z" id="RGRIP" style="opacity:0;stroke-linejoin:miter;stroke-opacity:0.28638497;fill-rule:evenodd;fill-opacity:0.1372549;stroke:#000000;stroke-linecap:butt;stroke-width:7.10775232px;fill:#000000" ns1:nodetypes="cccccccccc" ns2:connector-curvature="0" />
    </g>
  </g>
  <g id="layer3" style="display:inline" transform="translate(-14.528064,-241.23333)" ns2:groupmode="layer" ns2:label="Up" />
</svg>