<svg xmlns="http://www.w3.org/2000/svg" xmlns:dc="http://purl.org/dc/elements/1.1/" xmlns:ns1="http://sodipodi.sourceforge.net/DTD/sodipodi-0.dtd" xmlns:ns2="http://www.inkscape.org/namespaces/inkscape" xmlns:ns3="http://www.w3.org/1999/xlink" xmlns:ns5="http://creativecommons.org/ns#" xmlns:rdf="http://www.w3.org/1999/02/22-rdf-syntax-ns#" height="24" id="svg2" version="1.1" viewBox="0 0 24 24" width="24" ns1:docname="scbt-0.svg" ns2:version="0.92.2 2405546, 2018-03-11">
  <defs id="defs4">
    <filter id="filter3798" style="color-interpolation-filters:sRGB" ns2:label="Glow" ns2:menu="Shadows and Glows" ns2:menu-tooltip="Glow of object's own color at the edges">
      <feGaussianBlur id="feGaussianBlur3800" result="result91" stdDeviation="5" />
      <feComposite id="feComposite3802" in="SourceGraphic" in2="result91" operator="over" />
    </filter>
    <linearGradient id="linearGradient3759">
      <stop id="stop3761" offset="0" style="stop-color:#ffffff;stop-opacity:1;" />
      <stop id="stop3763" offset="1" style="stop-color:#ffffff;stop-opacity:0;" />
    </linearGradient>
    <filter id="filter4192" style="color-interpolation-filters:sRGB" ns2:label="Glow" ns2:menu="Shadows and Glows" ns2:menu-tooltip="Glow of object's own color at the edges">
      <feGaussianBlur id="feGaussianBlur4194" result="result91" stdDeviation="5" />
      <feComposite id="feComposite4196" in="SourceGraphic" in2="result91" operator="over" />
    </filter>
    <filter id="filter3798-5" style="color-interpolation-filters:sRGB" ns2:label="Glow" ns2:menu="Shadows and Glows" ns2:menu-tooltip="Glow of object's own color at the edges">
      <feGaussianBlur id="feGaussianBlur3800-8" result="result91" stdDeviation="5" />
      <feComposite id="feComposite3802-8" in="SourceGraphic" in2="result91" operator="over" />
    </filter>
    <filter id="filter3798-5-2" style="color-interpolation-filters:sRGB" ns2:label="Glow" ns2:menu="Shadows and Glows" ns2:menu-tooltip="Glow of object's own color at the edges">
      <feGaussianBlur id="feGaussianBlur3800-8-4" result="result91" stdDeviation="5" />
      <feComposite id="feComposite3802-8-9" in="SourceGraphic" in2="result91" operator="over" />
    </filter>
    <linearGradient gradientTransform="rotate(90,-90.0007,50.0022)" gradientUnits="userSpaceOnUse" id="linearGradient5960" x1="-84.002403" x2="-12.0029" y1="-383.9971" y2="-383.9971">
      <stop id="stop5962" offset="0" style="stop-color:#0081ec;stop-opacity:1;" />
      <stop id="stop5964" offset="1" style="stop-color:#003871;stop-opacity:1;" />
    </linearGradient>
    <linearGradient id="linearGradient3336" ns2:collect="always">
      <stop id="stop3338" offset="0" style="stop-color:#0066ff;stop-opacity:1" />
      <stop id="stop3340" offset="1" style="stop-color:#0066ff;stop-opacity:0" />
    </linearGradient>
    <radialGradient cx="64" cy="64" fx="64" fy="54.987789" gradientTransform="matrix(0.14701422,0,0,0.26832242,9.5959025,-0.76556673)" gradientUnits="userSpaceOnUse" id="radialGradient3153" r="36" ns2:collect="always" ns3:href="#linearGradient3336" />
    <filter id="filter3284" ns2:collect="always">
      <feGaussianBlur id="feGaussianBlur3286" stdDeviation="1.3468071" ns2:collect="always" />
    </filter>
    <linearGradient id="linearGradient5919">
      <stop id="stop5921" offset="0" style="stop-color:#ffffff;stop-opacity:1;" />
      <stop id="stop6238" offset="0.5" style="stop-color:#78c9ff;stop-opacity:0.49803922;" />
      <stop id="stop5923" offset="1" style="stop-color:#ffffff;stop-opacity:0;" />
    </linearGradient>
  </defs>
  <ns1:namedview bordercolor="#666666" borderopacity="1.0" fit-margin-bottom="0" fit-margin-left="0" fit-margin-right="0" fit-margin-top="0" id="base" pagecolor="#ffffff" showgrid="false" units="px" ns2:current-layer="overlay" ns2:cx="19.558753" ns2:cy="7.4398715" ns2:document-units="px" ns2:pageopacity="0.0" ns2:pageshadow="2" ns2:window-height="751" ns2:window-maximized="0" ns2:window-width="1482" ns2:window-x="1035" ns2:window-y="156" ns2:zoom="45.254834" />
  <metadata id="metadata7">
    <rdf:RDF>
      <ns5:Work rdf:about="">
        <dc:format>image/svg+xml</dc:format>
        <dc:type rdf:resource="http://purl.org/dc/dcmitype/StillImage" />
        <dc:title />
      </ns5:Work>
    </rdf:RDF>
  </metadata>
  <g id="layer1" style="display:inline" transform="translate(-240.24047,-784.63652)" ns2:groupmode="layer" ns2:label="Controller">
    <path d="m 11.271484,3.7558594 v 0.00781 c -1.7190197,0.022412 -3.5727575,-0.014342 -5.1582028,0.074219 -1.1382999,0.0684 -1.5165618,0.077338 -2.5449218,0.6484375 -0.5233,0.29062 -0.9865919,0.758395 -1.2011719,1.203125 -0.4753,1.39829 -1.8241475,6.8200661 -2.0546875,9.3789061 -0.0467,1.507 -0.21368375,3.202809 0.7539062,4.230469 0.7527801,0.70382 1.2300257,1.044819 2.1035157,1.355469 0.92304,0.004 1.2422387,0.04826 1.9179687,-0.791016 0.82731,-1.42317 1.7346569,-3.168437 2.4667969,-4.210937 0.50978,-0.23476 0.9797269,-0.254768 1.7167969,-0.267578 0.9345396,-0.0206 0.2627531,-0.03574 2.1894536,-0.05274 v -0.002 c 1.531726,-0.0077 1.01092,0.0087 3.242187,0.05469 0.73707,0.01281 1.207017,0.03282 1.716797,0.267578 0.73215,1.0425 1.639487,2.787767 2.466797,4.210937 0.67572,0.83928 0.994928,0.795016 1.917969,0.791016 0.8735,-0.31065 1.352698,-0.651649 2.105468,-1.355469 0.9676,-1.02766 0.798653,-2.723469 0.751953,-4.230469 -0.23054,-2.55884 -1.577434,-7.9806161 -2.052734,-9.3789061 -0.21459,-0.44473 -0.677872,-0.912505 -1.201172,-1.203125 -1.02837,-0.57113 -2.889044,-0.5917562 -4.027344,-0.6601562 -1.62373,-0.0909 -3.355845,-0.044212 -5.109375,-0.070312 z" id="path4166-6" style="stroke-linejoin:miter;stroke-opacity:1;fill-rule:evenodd;fill-opacity:1;stroke:#c8ff77;stroke-linecap:butt;stroke-miterlimit:4;stroke-dasharray:none;stroke-width:0.69999999;fill:#385f00" transform="translate(240.24047,784.63652)" ns2:connector-curvature="0" />
    <circle cx="258.44638" cy="793.47229" id="RPAD" r="3.0567439" style="opacity:1;stroke-linejoin:miter;enable-background:accumulate;stroke-opacity:1;fill-opacity:1;color:#000000;fill-rule:evenodd;stroke-dashoffset:0;visibility:visible;stroke:#c8ff77;stroke-linecap:butt;stroke-miterlimit:4;marker:none;stroke-dasharray:none;overflow:visible;stroke-width:0.5;display:inline;fill:#172800" />
    <path d="m 252.21899,791.51933 a 0.95251369,0.95251369 0 0 0 -0.88282,0.59571 h -0.49414 c -0.23027,0 -0.41601,0.18574 -0.41601,0.41601 0,0.23027 0.18574,0.41406 0.41601,0.41406 h 0.55274 a 0.95251369,0.95251369 0 0 0 0.82422,0.48047 0.95251369,0.95251369 0 0 0 0.86132,-0.55078 h 0.5586 c 0.23027,0 0.41601,-0.18379 0.41601,-0.41406 0,-0.23027 -0.18574,-0.41602 -0.41601,-0.41602 h -0.56836 a 0.95251369,0.95251369 0 0 0 -0.85156,-0.52539 z" id="C" style="opacity:1;stroke-linejoin:miter;enable-background:accumulate;stroke-opacity:1;fill-opacity:1;color:#000000;fill-rule:evenodd;stroke-dashoffset:0;visibility:visible;stroke:#c8ff77;stroke-linecap:butt;stroke-miterlimit:4;marker:none;stroke-dasharray:none;overflow:visible;stroke-width:0.1;display:inline;fill:#162600" ns2:connector-curvature="0" />
    <g id="LPAD" style="stroke-opacity:1;fill-opacity:1;stroke:#c8ff77;stroke-dasharray:none;stroke-miterlimit:4;stroke-width:9.41730118;fill:#172800" transform="matrix(0.05309377,0,0,0.05309377,228.91262,758.9833)">
      <circle cx="325.74435" cy="649.58276" id="circle4232" r="57.572552" style="opacity:1;stroke-linejoin:miter;enable-background:accumulate;stroke-opacity:1;fill-opacity:1;color:#000000;fill-rule:evenodd;stroke-dashoffset:0;visibility:visible;stroke:#c8ff77;stroke-linecap:butt;stroke-miterlimit:4;marker:none;stroke-dasharray:none;overflow:visible;stroke-width:9.41730118;display:inline;fill:#172800" />
      <path d="m 325.74435,600.83276 c -5.63893,0 -10.17871,4.53978 -10.17871,10.17871 v 28.39356 h -28.39258 c -5.63893,0 -10.17871,4.53881 -10.17871,10.17773 0,5.63893 4.53978,10.17871 10.17871,10.17871 h 28.39258 v 28.39356 c 0,5.63893 4.53978,10.17773 10.17871,10.17773 5.63892,0 10.17871,-4.5388 10.17871,-10.17773 v -28.39356 h 28.39258 c 5.63893,0 10.17871,-4.53978 10.17871,-10.17871 0,-5.63892 -4.53978,-10.17773 -10.17871,-10.17773 h -28.39258 v -28.39356 c 0,-5.63893 -4.53979,-10.17871 -10.17871,-10.17871 z" id="rect4249" style="opacity:1;stroke-linejoin:miter;enable-background:accumulate;stroke-opacity:1;fill-opacity:1;color:#000000;fill-rule:evenodd;stroke-dashoffset:0;visibility:visible;stroke:#345800;stroke-linecap:butt;stroke-miterlimit:4;marker:none;stroke-dasharray:none;overflow:visible;stroke-width:5.65038061;display:inline;fill:#172800" ns2:connector-curvature="0" />
    </g>
    <path d="m 261.27767,789.41108 c -0.13575,-0.48548 -0.25966,-1.31654 -1.93903,-1.55843 -0.69709,-0.0965 -1.65683,-0.26338 -2.55507,-0.19188 -0.3335,0.0403 -0.45921,0.45197 -0.54586,0.64245 1.63244,0.10407 3.83734,0.0869 5.03996,1.10786 z" id="RB" style="stroke-linejoin:miter;stroke-opacity:1;fill-rule:evenodd;fill-opacity:1;stroke:#c8ff77;stroke-linecap:butt;stroke-miterlimit:4;stroke-dasharray:none;stroke-width:0.74563211;fill:#375c00" ns1:nodetypes="ccccc" ns2:connector-curvature="0" />
    <path LT="path4420-4" d="m 243.19754,789.41108 c 0.13573,-0.48548 0.25964,-1.31654 1.93901,-1.55843 0.69709,-0.0965 1.65683,-0.26338 2.55508,-0.19188 0.33349,0.0403 0.4592,0.45197 0.54586,0.64245 -1.63244,0.10407 -3.83733,0.0869 -5.03995,1.10786 z" id="LB" style="stroke-linejoin:miter;stroke-opacity:1;fill-rule:evenodd;fill-opacity:1;stroke:#c8ff77;stroke-linecap:butt;stroke-miterlimit:4;stroke-dasharray:none;stroke-width:0.74563211;fill:#375c00" ns1:nodetypes="ccccc" ns2:connector-curvature="0" />
    <circle cx="253.80658" cy="795.71283" id="path4170-0" r="0.83794421" style="opacity:1;stroke-linejoin:miter;enable-background:accumulate;stroke-opacity:1;fill-opacity:1;color:#000000;fill-rule:evenodd;stroke-dashoffset:0;visibility:visible;stroke:#c8ff77;stroke-linecap:butt;stroke-miterlimit:4;marker:none;stroke-dasharray:none;overflow:visible;stroke-width:0.12986854;display:inline;fill:#162600" />
    <circle cx="252.34523" cy="797.08453" id="path4170-0-8-4" r="0.83794421" style="opacity:1;stroke-linejoin:miter;enable-background:accumulate;stroke-opacity:1;fill-opacity:1;color:#000000;fill-rule:evenodd;stroke-dashoffset:0;visibility:visible;stroke:#c8ff77;stroke-linecap:butt;stroke-miterlimit:4;marker:none;stroke-dasharray:none;overflow:visible;stroke-width:0.12986854;display:inline;fill:#162600" />
    <circle cx="253.80658" cy="798.56909" id="path4170-0-8" r="0.83794421" style="opacity:1;stroke-linejoin:miter;enable-background:accumulate;stroke-opacity:1;fill-opacity:1;color:#000000;fill-rule:evenodd;stroke-dashoffset:0;visibility:visible;stroke:#c8ff77;stroke-linecap:butt;stroke-miterlimit:4;marker:none;stroke-dasharray:none;overflow:visible;stroke-width:0.12986854;display:inline;fill:#162600" />
    <circle cx="255.2957" cy="797.08453" id="path4170-0-8-4-6" r="0.83794421" style="opacity:1;stroke-linejoin:miter;enable-background:accumulate;stroke-opacity:1;fill-opacity:1;color:#000000;fill-rule:evenodd;stroke-dashoffset:0;visibility:visible;stroke:#c8ff77;stroke-linecap:butt;stroke-miterlimit:4;marker:none;stroke-dasharray:none;overflow:visible;stroke-width:0.12986854;display:inline;fill:#162600" />
    <g id="g4196" transform="matrix(0.05309377,0,0,0.05309377,228.42169,758.2299)">
      <path d="m 390.63272,648.81596 c -11.78993,-4.4875 -85.69242,-15.79789 -102.13822,-17.14412 -17.90712,8.56832 -28.0742,22.58347 -29.82718,42.51958 l 0.63474,47.59657 c -0.55869,14.59846 4.67422,40.28362 23.79833,44.74073 l 116.13554,-13.32704 c 12.12598,-5.50232 10.14488,-8.91459 6.34624,-12.05771 -10.81472,-8.85246 -23.79037,-28.69912 -23.16368,-39.34656 0.50253,-14.43269 1.57474,-25.11649 19.69579,-38.58706 4.01937,-2.30096 -1.13067,-9.93728 -11.48156,-14.39439 z" id="LGRIP" style="opacity:0;stroke-linejoin:miter;stroke-opacity:0.28638497;fill-rule:evenodd;fill-opacity:0.1372549;stroke:#000000;stroke-linecap:butt;stroke-width:7.10775232px;fill:#000000" ns1:nodetypes="cccccccccc" ns2:connector-curvature="0" />
      <path d="m 504.50639,648.81596 c 11.78993,-4.4875 85.69242,-15.79789 102.13822,-17.14412 17.90712,8.56832 28.0742,22.58347 29.82718,42.51958 l -0.63474,47.59657 c 0.55869,14.59846 -4.67422,40.28362 -23.79833,44.74073 L 495.90318,753.20168 c -12.12598,-5.50232 -10.14488,-8.91459 -6.34624,-12.05771 10.81472,-8.85246 23.79037,-28.69912 23.16368,-39.34656 -0.50253,-14.43269 -1.57474,-25.11649 -19.69579,-38.58706 -4.01937,-2.30096 1.13067,-9.93728 11.48156,-14.39439 z" id="RGRIP" style="opacity:0;stroke-linejoin:miter;stroke-opacity:0.28638497;fill-rule:evenodd;fill-opacity:0.1372549;stroke:#000000;stroke-linecap:butt;stroke-width:7.10775232px;fill:#000000" ns1:nodetypes="cccccccccc" ns2:connector-curvature="0" />
    </g>
  </g>
  <g id="overlay" ns2:groupmode="layer" ns2:label="overlay">
    <path d="m 22.348513,16.407069 c 0,5.069968 -1.497978,5.914964 -3.3437,5.914964 -1.845723,0 -3.3437,-0.844996 -3.3437,-5.914964 0,-5.06997 1.497977,-5.914965 3.3437,-5.914965 1.845722,0 3.3437,0.844995 3.3437,5.914965 z" id="path2160" style="fill:#003059;fill-opacity:1;stroke:#ffffff;stroke-width:0.1;stroke-linecap:round;stroke-linejoin:round;stroke-miterlimit:4;stroke-opacity:1;stroke-dasharray:none" ns1:nodetypes="csssc" ns2:connector-curvature="0" />
    <path d="m 22.014143,16.407068 c 0,4.707829 -1.34818,5.492467 -3.00933,5.492467 -1.661151,0 -3.00933,-0.784638 -3.00933,-5.492467 0,-4.707828 1.348179,-5.492466 3.00933,-5.492466 1.66115,0 3.00933,0.784638 3.00933,5.492466 z" id="path3143" style="fill:url(#radialGradient3153);fill-opacity:1;stroke:none;stroke-width:2;stroke-linecap:round;stroke-linejoin:round;stroke-miterlimit:4;stroke-opacity:1" ns1:nodetypes="csssc" ns2:connector-curvature="0" />
    <path d="m -2.7500006,-31.124999 v 13.3125 18.59374954 l -5,3.99999996 -15.0000004,-12 v 8.00000004 l 10,7.99999996 -10,8.0000005 v 8 l 15.0000004,-12 5,4 V 48.781249 L 21.249999,28.812501 -2.7500006,8.8125005 21.249999,-11.156249 Z m 4,10.28125 11.9999996,9.625 -11.9999996,9.6249995 z m 0,40 11.9999996,9.625 -11.9999996,9.625 z" id="path3238" style="fill:#ffffff;fill-opacity:1;fill-rule:evenodd;stroke:none;stroke-width:10.64227104px;stroke-linecap:butt;stroke-linejoin:miter;stroke-opacity:1;filter:url(#filter3284)" transform="matrix(0.0835925,0,0,0.10562436,18.900322,15.469652)" ns2:connector-curvature="0" />
    <path d="m 18.670443,12.182094 v 1.406124 1.963953 l -0.417963,0.422498 -1.253887,-1.267493 v 0.844995 l 0.835925,0.844995 -0.835925,0.844995 v 0.844995 l 1.253887,-1.267493 0.417963,0.422498 v 3.379979 l 2.00622,-2.109186 -2.00622,-2.112487 2.00622,-2.109187 z m 0.33437,1.08595 1.00311,1.016635 -1.00311,1.016634 z m 0,4.224975 1.00311,1.016634 -1.00311,1.016635 z" id="path3216" style="fill:#ffffff;fill-opacity:1;fill-rule:evenodd;stroke:none;stroke-width:1px;stroke-linecap:butt;stroke-linejoin:miter;stroke-opacity:1" ns2:connector-curvature="0" />
  </g>
</svg>