<svg xmlns="http://www.w3.org/2000/svg" xmlns:dc="http://purl.org/dc/elements/1.1/" xmlns:ns1="http://sodipodi.sourceforge.net/DTD/sodipodi-0.dtd" xmlns:ns2="http://www.inkscape.org/namespaces/inkscape" xmlns:ns4="http://creativecommons.org/ns#" xmlns:rdf="http://www.w3.org/1999/02/22-rdf-syntax-ns#" height="24" id="svg2" version="1.1" viewBox="0 0 24 24" width="24" ns1:docname="fake-0.svg" ns2:version="0.91 r13725">
  <defs id="defs4">
    <filter id="filter3798" style="color-interpolation-filters:sRGB" ns2:label="Glow" ns2:menu="Shadows and Glows" ns2:menu-tooltip="Glow of object's own color at the edges">
      <feGaussianBlur id="feGaussianBlur3800" result="result91" stdDeviation="5" />
      <feComposite id="feComposite3802" in="SourceGraphic" in2="result91" operator="over" />
    </filter>
    <linearGradient id="linearGradient3759">
      <stop id="stop3761" offset="0" style="stop-color:#ffffff;stop-opacity:1;" />
      <stop id="stop3763" offset="1" style="stop-color:#ffffff;stop-opacity:0;" />
    </linearGradient>
    <filter id="filter4192" style="color-interpolation-filters:sRGB" ns2:label="Glow" ns2:menu="Shadows and Glows" ns2:menu-tooltip="Glow of object's own color at the edges">
      <feGaussianBlur id="feGaussianBlur4194" result="result91" stdDeviation="5" />
      <feComposite id="feComposite4196" in="SourceGraphic" in2="result91" operator="over" />
    </filter>
    <filter id="filter3798-5" style="color-interpolation-filters:sRGB" ns2:label="Glow" ns2:menu="Shadows and Glows" ns2:menu-tooltip="Glow of object's own color at the edges">
      <feGaussianBlur id="feGaussianBlur3800-8" result="result91" stdDeviation="5" />
      <feComposite id="feComposite3802-8" in="SourceGraphic" in2="result91" operator="over" />
    </filter>
    <filter id="filter3798-5-2" style="color-interpolation-filters:sRGB" ns2:label="Glow" ns2:menu="Shadows and Glows" ns2:menu-tooltip="Glow of object's own color at the edges">
      <feGaussianBlur id="feGaussianBlur3800-8-4" result="result91" stdDeviation="5" />
      <feComposite id="feComposite3802-8-9" in="SourceGraphic" in2="result91" operator="over" />
    </filter>
  </defs>
  <ns1:namedview bordercolor="#666666" borderopacity="1.0" fit-margin-bottom="0" fit-margin-left="0" fit-margin-right="0" fit-margin-top="0" id="base" pagecolor="#ffffff" showgrid="false" units="px" ns2:current-layer="layer1" ns2:cx="6.8704396" ns2:cy="12.809498" ns2:document-units="px" ns2:pageopacity="0.0" ns2:pageshadow="2" ns2:window-height="1402" ns2:window-maximized="0" ns2:window-width="1800" ns2:window-x="2801" ns2:window-y="0" ns2:zoom="31.678384" />
  <metadata id="metadata7">
    <rdf:RDF>
      <ns4:Work rdf:about="">
        <dc:format>image/svg+xml</dc:format>
        <dc:type rdf:resource="http://purl.org/dc/dcmitype/StillImage" />
        <dc:title />
      </ns4:Work>
    </rdf:RDF>
  </metadata>
  <g id="layer1" style="display:inline" transform="translate(-240.24047,-784.63652)" ns2:groupmode="layer" ns2:label="Controller">
    <path d="m 251.53956,788.36402 0,0.008 c -1.68266,0.0219 -3.49719,-0.014 -5.0491,0.0727 -1.11422,0.067 -1.48448,0.0757 -2.49109,0.63472 -0.51223,0.28448 -0.96572,0.74236 -1.17576,1.17768 -0.46525,1.36871 -1.78557,6.67581 -2.01123,9.18053 -0.0457,1.47512 -0.20917,3.13506 0.73796,4.14099 0.73686,0.68893 1.20401,1.02272 2.05902,1.32679 0.90352,0.004 1.21596,0.0473 1.8774,-0.77428 0.80981,-1.39307 1.69797,-3.10142 2.41462,-4.12187 0.499,-0.22979 0.95901,-0.24938 1.68049,-0.26192 0.91477,-0.0202 0.25719,-0.035 2.14314,-0.0516 l 0,-0.002 c 1.49933,-0.007 0.98954,0.008 3.17361,0.0535 0.72148,0.0125 1.18149,0.0321 1.68048,0.26192 0.71667,1.02045 1.60481,2.7288 2.41462,4.12187 0.66143,0.82153 0.97389,0.7782 1.8774,0.77428 0.85503,-0.30407 1.32409,-0.63786 2.06094,-1.32679 0.94713,-1.00593 0.78176,-2.66587 0.73605,-4.14099 -0.22567,-2.50472 -1.54407,-7.81182 -2.00932,-9.18053 -0.21005,-0.43532 -0.66353,-0.8932 -1.17576,-1.17768 -1.00662,-0.55905 -2.82794,-0.57924 -3.94216,-0.64619 -1.58939,-0.089 -3.28487,-0.0433 -5.00131,-0.0688 z" id="path4166-6" style="stroke-linejoin:miter;stroke-opacity:1;fill-rule:evenodd;fill-opacity:1;stroke:#7792ff;stroke-linecap:butt;stroke-miterlimit:4;stroke-dasharray:none;stroke-width:0.979;fill:#00135f" ns2:connector-curvature="0" />
    <g id="g4196" transform="matrix(0.05309377,0,0,0.05309377,228.42169,758.2299)">
      <path d="m 390.63272,648.81596 c -11.78993,-4.4875 -85.69242,-15.79789 -102.13822,-17.14412 -17.90712,8.56832 -28.0742,22.58347 -29.82718,42.51958 l 0.63474,47.59657 c -0.55869,14.59846 4.67422,40.28362 23.79833,44.74073 l 116.13554,-13.32704 c 12.12598,-5.50232 10.14488,-8.91459 6.34624,-12.05771 -10.81472,-8.85246 -23.79037,-28.69912 -23.16368,-39.34656 0.50253,-14.43269 1.57474,-25.11649 19.69579,-38.58706 4.01937,-2.30096 -1.13067,-9.93728 -11.48156,-14.39439 z" id="LGRIP" style="opacity:0;stroke-linejoin:miter;stroke-opacity:0.28638497;fill-rule:evenodd;fill-opacity:0.1372549;stroke:#000000;stroke-linecap:butt;stroke-width:7.10775232px;fill:#000000" ns1:nodetypes="cccccccccc" ns2:connector-curvature="0" />
      <path d="m 504.50639,648.81596 c 11.78993,-4.4875 85.69242,-15.79789 102.13822,-17.14412 17.90712,8.56832 28.0742,22.58347 29.82718,42.51958 l -0.63474,47.59657 c 0.55869,14.59846 -4.67422,40.28362 -23.79833,44.74073 L 495.90318,753.20168 c -12.12598,-5.50232 -10.14488,-8.91459 -6.34624,-12.05771 10.81472,-8.85246 23.79037,-28.69912 23.16368,-39.34656 -0.50253,-14.43269 -1.57474,-25.11649 -19.69579,-38.58706 -4.01937,-2.30096 1.13067,-9.93728 11.48156,-14.39439 z" id="RGRIP" style="opacity:0;stroke-linejoin:miter;stroke-opacity:0.28638497;fill-rule:evenodd;fill-opacity:0.1372549;stroke:#000000;stroke-linecap:butt;stroke-width:7.10775232px;fill:#000000" ns1:nodetypes="cccccccccc" ns2:connector-curvature="0" />
    </g>
  </g>
</svg>