<?xml version="1.0" encoding="UTF-8" standalone="no"?>
<!-- Created with Inkscape (http://www.inkscape.org/) -->

<svg
   xmlns:dc="http://purl.org/dc/elements/1.1/"
   xmlns:cc="http://creativecommons.org/ns#"
   xmlns:rdf="http://www.w3.org/1999/02/22-rdf-syntax-ns#"
   xmlns:svg="http://www.w3.org/2000/svg"
   xmlns="http://www.w3.org/2000/svg"
   xmlns:xlink="http://www.w3.org/1999/xlink"
   xmlns:sodipodi="http://sodipodi.sourceforge.net/DTD/sodipodi-0.dtd"
   xmlns:inkscape="http://www.inkscape.org/namespaces/inkscape"
   width="24"
   height="24"
   viewBox="0 0 24 24"
   id="svg2"
   version="1.1"
   inkscape:version="0.92.2 2405546, 2018-03-11"
   sodipodi:docname="scbt-0.svg">
  <defs
     id="defs4">
    <filter
       style="color-interpolation-filters:sRGB"
       id="filter3798"
       inkscape:label="Glow"
       inkscape:menu="Shadows and Glows"
       inkscape:menu-tooltip="Glow of object's own color at the edges">
      <feGaussianBlur
         id="feGaussianBlur3800"
         stdDeviation="5"
         result="result91" />
      <feComposite
         id="feComposite3802"
         in2="result91"
         in="SourceGraphic"
         operator="over" />
    </filter>
    <linearGradient
       id="linearGradient3759">
      <stop
         style="stop-color:#ffffff;stop-opacity:1;"
         offset="0"
         id="stop3761" />
      <stop
         style="stop-color:#ffffff;stop-opacity:0;"
         offset="1"
         id="stop3763" />
    </linearGradient>
    <filter
       style="color-interpolation-filters:sRGB"
       id="filter4192"
       inkscape:label="Glow"
       inkscape:menu="Shadows and Glows"
       inkscape:menu-tooltip="Glow of object's own color at the edges">
      <feGaussianBlur
         id="feGaussianBlur4194"
         stdDeviation="5"
         result="result91" />
      <feComposite
         id="feComposite4196"
         in2="result91"
         in="SourceGraphic"
         operator="over" />
    </filter>
    <filter
       style="color-interpolation-filters:sRGB"
       id="filter3798-5"
       inkscape:label="Glow"
       inkscape:menu="Shadows and Glows"
       inkscape:menu-tooltip="Glow of object's own color at the edges">
      <feGaussianBlur
         id="feGaussianBlur3800-8"
         stdDeviation="5"
         result="result91" />
      <feComposite
         id="feComposite3802-8"
         in2="result91"
         in="SourceGraphic"
         operator="over" />
    </filter>
    <filter
       style="color-interpolation-filters:sRGB"
       id="filter3798-5-2"
       inkscape:label="Glow"
       inkscape:menu="Shadows and Glows"
       inkscape:menu-tooltip="Glow of object's own color at the edges">
      <feGaussianBlur
         id="feGaussianBlur3800-8-4"
         stdDeviation="5"
         result="result91" />
      <feComposite
         id="feComposite3802-8-9"
         in2="result91"
         in="SourceGraphic"
         operator="over" />
    </filter>
    <linearGradient
       gradientTransform="rotate(90,-90.0007,50.0022)"
       y2="-383.9971"
       x2="-12.0029"
       y1="-383.9971"
       x1="-84.002403"
       gradientUnits="userSpaceOnUse"
       id="linearGradient5960">
      <stop
         id="stop5962"
         style="stop-color:#0081ec;stop-opacity:1;"
         offset="0" />
      <stop
         id="stop5964"
         style="stop-color:#003871;stop-opacity:1;"
         offset="1" />
    </linearGradient>
    <linearGradient
       id="linearGradient3336"
       inkscape:collect="always">
      <stop
         id="stop3338"
         offset="0"
         style="stop-color:#0066ff;stop-opacity:1" />
      <stop
         id="stop3340"
         offset="1"
         style="stop-color:#0066ff;stop-opacity:0" />
    </linearGradient>
    <radialGradient
       inkscape:collect="always"
       xlink:href="#linearGradient3336"
       id="radialGradient3153"
       cx="64"
       cy="64"
       fx="64"
       fy="54.987789"
       r="36"
       gradientTransform="matrix(0.14701422,0,0,0.26832242,9.5959025,-0.76556673)"
       gradientUnits="userSpaceOnUse" />
    <filter
       inkscape:collect="always"
       id="filter3284">
      <feGaussianBlur
         inkscape:collect="always"
         stdDeviation="1.3468071"
         id="feGaussianBlur3286" />
    </filter>
    <linearGradient
       id="linearGradient5919">
      <stop
         id="stop5921"
         offset="0"
         style="stop-color:#ffffff;stop-opacity:1;" />
      <stop
         style="stop-color:#78c9ff;stop-opacity:0.49803922;"
         offset="0.5"
         id="stop6238" />
      <stop
         id="stop5923"
         offset="1"
         style="stop-color:#ffffff;stop-opacity:0;" />
    </linearGradient>
  </defs>
  <sodipodi:namedview
     id="base"
     pagecolor="#ffffff"
     bordercolor="#666666"
     borderopacity="1.0"
     inkscape:pageopacity="0.0"
     inkscape:pageshadow="2"
     inkscape:zoom="45.254834"
     inkscape:cx="19.558753"
     inkscape:cy="7.4398715"
     inkscape:document-units="px"
     inkscape:current-layer="overlay"
     showgrid="false"
     units="px"
     inkscape:window-width="1482"
     inkscape:window-height="751"
     inkscape:window-x="1035"
     inkscape:window-y="156"
     inkscape:window-maximized="0"
     fit-margin-top="0"
     fit-margin-left="0"
     fit-margin-right="0"
     fit-margin-bottom="0" />
  <metadata
     id="metadata7">
    <rdf:RDF>
      <cc:Work
         rdf:about="">
        <dc:format>image/svg+xml</dc:format>
        <dc:type
           rdf:resource="http://purl.org/dc/dcmitype/StillImage" />
        <dc:title />
      </cc:Work>
    </rdf:RDF>
  </metadata>
  <g
     inkscape:label="Controller"
     inkscape:groupmode="layer"
     id="layer1"
     transform="translate(-240.24047,-784.63652)"
     style="display:inline">
    <path
       style="fill:#005f00;fill-opacity:1;fill-rule:evenodd;stroke:#77ff77;stroke-width:0.69999999;stroke-linecap:butt;stroke-linejoin:miter;stroke-miterlimit:4;stroke-dasharray:none;stroke-opacity:1"
       d="m 11.271484,3.7558594 v 0.00781 c -1.7190197,0.022412 -3.5727575,-0.014342 -5.1582028,0.074219 -1.1382999,0.0684 -1.5165618,0.077338 -2.5449218,0.6484375 -0.5233,0.29062 -0.9865919,0.758395 -1.2011719,1.203125 -0.4753,1.39829 -1.8241475,6.8200661 -2.0546875,9.3789061 -0.0467,1.507 -0.21368375,3.202809 0.7539062,4.230469 0.7527801,0.70382 1.2300257,1.044819 2.1035157,1.355469 0.92304,0.004 1.2422387,0.04826 1.9179687,-0.791016 0.82731,-1.42317 1.7346569,-3.168437 2.4667969,-4.210937 0.50978,-0.23476 0.9797269,-0.254768 1.7167969,-0.267578 0.9345396,-0.0206 0.2627531,-0.03574 2.1894536,-0.05274 v -0.002 c 1.531726,-0.0077 1.01092,0.0087 3.242187,0.05469 0.73707,0.01281 1.207017,0.03282 1.716797,0.267578 0.73215,1.0425 1.639487,2.787767 2.466797,4.210937 0.67572,0.83928 0.994928,0.795016 1.917969,0.791016 0.8735,-0.31065 1.352698,-0.651649 2.105468,-1.355469 0.9676,-1.02766 0.798653,-2.723469 0.751953,-4.230469 -0.23054,-2.55884 -1.577434,-7.9806161 -2.052734,-9.3789061 -0.21459,-0.44473 -0.677872,-0.912505 -1.201172,-1.203125 -1.02837,-0.57113 -2.889044,-0.5917562 -4.027344,-0.6601562 -1.62373,-0.0909 -3.355845,-0.044212 -5.109375,-0.070312 z"
       transform="translate(240.24047,784.63652)"
       id="path4166-6"
       inkscape:connector-curvature="0" />
    <circle
       style="color:#000000;display:inline;overflow:visible;visibility:visible;opacity:1;fill:#002800;fill-opacity:1;fill-rule:evenodd;stroke:#77ff77;stroke-width:0.5;stroke-linecap:butt;stroke-linejoin:miter;stroke-miterlimit:4;stroke-dasharray:none;stroke-dashoffset:0;stroke-opacity:1;marker:none;enable-background:accumulate"
       id="RPAD"
       cx="258.44638"
       cy="793.47229"
       r="3.0567439" />
    <path
       style="color:#000000;display:inline;overflow:visible;visibility:visible;opacity:1;fill:#002600;fill-opacity:1;fill-rule:evenodd;stroke:#77ff77;stroke-width:0.1;stroke-linecap:butt;stroke-linejoin:miter;stroke-miterlimit:4;stroke-dasharray:none;stroke-dashoffset:0;stroke-opacity:1;marker:none;enable-background:accumulate"
       d="m 252.21899,791.51933 a 0.95251369,0.95251369 0 0 0 -0.88282,0.59571 h -0.49414 c -0.23027,0 -0.41601,0.18574 -0.41601,0.41601 0,0.23027 0.18574,0.41406 0.41601,0.41406 h 0.55274 a 0.95251369,0.95251369 0 0 0 0.82422,0.48047 0.95251369,0.95251369 0 0 0 0.86132,-0.55078 h 0.5586 c 0.23027,0 0.41601,-0.18379 0.41601,-0.41406 0,-0.23027 -0.18574,-0.41602 -0.41601,-0.41602 h -0.56836 a 0.95251369,0.95251369 0 0 0 -0.85156,-0.52539 z"
       id="C"
       inkscape:connector-curvature="0" />
    <g
       id="LPAD"
       transform="matrix(0.05309377,0,0,0.05309377,228.91262,758.9833)"
       style="fill:#002800;fill-opacity:1;stroke:#77ff77;stroke-width:9.41730118;stroke-miterlimit:4;stroke-dasharray:none;stroke-opacity:1">
      <circle
         style="color:#000000;display:inline;overflow:visible;visibility:visible;opacity:1;fill:#002800;fill-opacity:1;fill-rule:evenodd;stroke:#77ff77;stroke-width:9.41730118;stroke-linecap:butt;stroke-linejoin:miter;stroke-miterlimit:4;stroke-dasharray:none;stroke-dashoffset:0;stroke-opacity:1;marker:none;enable-background:accumulate"
         id="circle4232"
         cx="325.74435"
         cy="649.58276"
         r="57.572552" />
      <path
         inkscape:connector-curvature="0"
         id="rect4249"
         d="m 325.74435,600.83276 c -5.63893,0 -10.17871,4.53978 -10.17871,10.17871 v 28.39356 h -28.39258 c -5.63893,0 -10.17871,4.53881 -10.17871,10.17773 0,5.63893 4.53978,10.17871 10.17871,10.17871 h 28.39258 v 28.39356 c 0,5.63893 4.53978,10.17773 10.17871,10.17773 5.63892,0 10.17871,-4.5388 10.17871,-10.17773 v -28.39356 h 28.39258 c 5.63893,0 10.17871,-4.53978 10.17871,-10.17871 0,-5.63892 -4.53978,-10.17773 -10.17871,-10.17773 h -28.39258 v -28.39356 c 0,-5.63893 -4.53979,-10.17871 -10.17871,-10.17871 z"
         style="color:#000000;display:inline;overflow:visible;visibility:visible;opacity:1;fill:#002800;fill-opacity:1;fill-rule:evenodd;stroke:#005800;stroke-width:5.65038061;stroke-linecap:butt;stroke-linejoin:miter;stroke-miterlimit:4;stroke-dasharray:none;stroke-dashoffset:0;stroke-opacity:1;marker:none;enable-background:accumulate" />
    </g>
    <path
       style="fill:#005c00;fill-opacity:1;fill-rule:evenodd;stroke:#77ff77;stroke-width:0.74563211;stroke-linecap:butt;stroke-linejoin:miter;stroke-miterlimit:4;stroke-dasharray:none;stroke-opacity:1"
       d="m 261.27767,789.41108 c -0.13575,-0.48548 -0.25966,-1.31654 -1.93903,-1.55843 -0.69709,-0.0965 -1.65683,-0.26338 -2.55507,-0.19188 -0.3335,0.0403 -0.45921,0.45197 -0.54586,0.64245 1.63244,0.10407 3.83734,0.0869 5.03996,1.10786 z"
       id="RB"
       inkscape:connector-curvature="0"
       sodipodi:nodetypes="ccccc" />
    <path
       style="fill:#005c00;fill-opacity:1;fill-rule:evenodd;stroke:#77ff77;stroke-width:0.74563211;stroke-linecap:butt;stroke-linejoin:miter;stroke-miterlimit:4;stroke-dasharray:none;stroke-opacity:1"
       d="m 243.19754,789.41108 c 0.13573,-0.48548 0.25964,-1.31654 1.93901,-1.55843 0.69709,-0.0965 1.65683,-0.26338 2.55508,-0.19188 0.33349,0.0403 0.4592,0.45197 0.54586,0.64245 -1.63244,0.10407 -3.83733,0.0869 -5.03995,1.10786 z"
       id="LB"
       inkscape:connector-curvature="0"
       sodipodi:nodetypes="ccccc"
       LT="path4420-4" />
    <circle
       style="color:#000000;display:inline;overflow:visible;visibility:visible;opacity:1;fill:#002600;fill-opacity:1;fill-rule:evenodd;stroke:#77ff77;stroke-width:0.12986854;stroke-linecap:butt;stroke-linejoin:miter;stroke-miterlimit:4;stroke-dasharray:none;stroke-dashoffset:0;stroke-opacity:1;marker:none;enable-background:accumulate"
       id="path4170-0"
       cy="795.71283"
       cx="253.80658"
       r="0.83794421" />
    <circle
       style="color:#000000;display:inline;overflow:visible;visibility:visible;opacity:1;fill:#002600;fill-opacity:1;fill-rule:evenodd;stroke:#77ff77;stroke-width:0.12986854;stroke-linecap:butt;stroke-linejoin:miter;stroke-miterlimit:4;stroke-dasharray:none;stroke-dashoffset:0;stroke-opacity:1;marker:none;enable-background:accumulate"
       id="path4170-0-8-4"
       cy="797.08453"
       cx="252.34523"
       r="0.83794421" />
    <circle
       style="color:#000000;display:inline;overflow:visible;visibility:visible;opacity:1;fill:#002600;fill-opacity:1;fill-rule:evenodd;stroke:#77ff77;stroke-width:0.12986854;stroke-linecap:butt;stroke-linejoin:miter;stroke-miterlimit:4;stroke-dasharray:none;stroke-dashoffset:0;stroke-opacity:1;marker:none;enable-background:accumulate"
       id="path4170-0-8"
       cy="798.56909"
       cx="253.80658"
       r="0.83794421" />
    <circle
       style="color:#000000;display:inline;overflow:visible;visibility:visible;opacity:1;fill:#002600;fill-opacity:1;fill-rule:evenodd;stroke:#77ff77;stroke-width:0.12986854;stroke-linecap:butt;stroke-linejoin:miter;stroke-miterlimit:4;stroke-dasharray:none;stroke-dashoffset:0;stroke-opacity:1;marker:none;enable-background:accumulate"
       id="path4170-0-8-4-6"
       cy="797.08453"
       cx="255.2957"
       r="0.83794421" />
    <g
       id="g4196"
       transform="matrix(0.05309377,0,0,0.05309377,228.42169,758.2299)">
      <path
         sodipodi:nodetypes="cccccccccc"
         inkscape:connector-curvature="0"
         id="LGRIP"
         d="m 390.63272,648.81596 c -11.78993,-4.4875 -85.69242,-15.79789 -102.13822,-17.14412 -17.90712,8.56832 -28.0742,22.58347 -29.82718,42.51958 l 0.63474,47.59657 c -0.55869,14.59846 4.67422,40.28362 23.79833,44.74073 l 116.13554,-13.32704 c 12.12598,-5.50232 10.14488,-8.91459 6.34624,-12.05771 -10.81472,-8.85246 -23.79037,-28.69912 -23.16368,-39.34656 0.50253,-14.43269 1.57474,-25.11649 19.69579,-38.58706 4.01937,-2.30096 -1.13067,-9.93728 -11.48156,-14.39439 z"
         style="opacity:0;fill:#000000;fill-opacity:0.1372549;fill-rule:evenodd;stroke:#000000;stroke-width:7.10775232px;stroke-linecap:butt;stroke-linejoin:miter;stroke-opacity:0.28638497" />
      <path
         sodipodi:nodetypes="cccccccccc"
         inkscape:connector-curvature="0"
         id="RGRIP"
         d="m 504.50639,648.81596 c 11.78993,-4.4875 85.69242,-15.79789 102.13822,-17.14412 17.90712,8.56832 28.0742,22.58347 29.82718,42.51958 l -0.63474,47.59657 c 0.55869,14.59846 -4.67422,40.28362 -23.79833,44.74073 L 495.90318,753.20168 c -12.12598,-5.50232 -10.14488,-8.91459 -6.34624,-12.05771 10.81472,-8.85246 23.79037,-28.69912 23.16368,-39.34656 -0.50253,-14.43269 -1.57474,-25.11649 -19.69579,-38.58706 -4.01937,-2.30096 1.13067,-9.93728 11.48156,-14.39439 z"
         style="opacity:0;fill:#000000;fill-opacity:0.1372549;fill-rule:evenodd;stroke:#000000;stroke-width:7.10775232px;stroke-linecap:butt;stroke-linejoin:miter;stroke-opacity:0.28638497" />
    </g>
  </g>
  <g
     inkscape:groupmode="layer"
     id="overlay"
     inkscape:label="overlay">
    <path
       inkscape:connector-curvature="0"
       style="fill:#003059;fill-opacity:1;stroke:#ffffff;stroke-width:0.1;stroke-linecap:round;stroke-linejoin:round;stroke-miterlimit:4;stroke-opacity:1;stroke-dasharray:none"
       d="m 22.348513,16.407069 c 0,5.069968 -1.497978,5.914964 -3.3437,5.914964 -1.845723,0 -3.3437,-0.844996 -3.3437,-5.914964 0,-5.06997 1.497977,-5.914965 3.3437,-5.914965 1.845722,0 3.3437,0.844995 3.3437,5.914965 z"
       id="path2160"
       sodipodi:nodetypes="csssc" />
    <path
       inkscape:connector-curvature="0"
       sodipodi:nodetypes="csssc"
       id="path3143"
       d="m 22.014143,16.407068 c 0,4.707829 -1.34818,5.492467 -3.00933,5.492467 -1.661151,0 -3.00933,-0.784638 -3.00933,-5.492467 0,-4.707828 1.348179,-5.492466 3.00933,-5.492466 1.66115,0 3.00933,0.784638 3.00933,5.492466 z"
       style="fill:url(#radialGradient3153);fill-opacity:1;stroke:none;stroke-width:2;stroke-linecap:round;stroke-linejoin:round;stroke-miterlimit:4;stroke-opacity:1" />
    <path
       inkscape:connector-curvature="0"
       id="path3238"
       d="m -2.7500006,-31.124999 v 13.3125 18.59374954 l -5,3.99999996 -15.0000004,-12 v 8.00000004 l 10,7.99999996 -10,8.0000005 v 8 l 15.0000004,-12 5,4 V 48.781249 L 21.249999,28.812501 -2.7500006,8.8125005 21.249999,-11.156249 Z m 4,10.28125 11.9999996,9.625 -11.9999996,9.6249995 z m 0,40 11.9999996,9.625 -11.9999996,9.625 z"
       style="fill:#ffffff;fill-opacity:1;fill-rule:evenodd;stroke:none;stroke-width:10.64227104px;stroke-linecap:butt;stroke-linejoin:miter;stroke-opacity:1;filter:url(#filter3284)"
       transform="matrix(0.0835925,0,0,0.10562436,18.900322,15.469652)" />
    <path
       inkscape:connector-curvature="0"
       style="fill:#ffffff;fill-opacity:1;fill-rule:evenodd;stroke:none;stroke-width:1px;stroke-linecap:butt;stroke-linejoin:miter;stroke-opacity:1"
       d="m 18.670443,12.182094 v 1.406124 1.963953 l -0.417963,0.422498 -1.253887,-1.267493 v 0.844995 l 0.835925,0.844995 -0.835925,0.844995 v 0.844995 l 1.253887,-1.267493 0.417963,0.422498 v 3.379979 l 2.00622,-2.109186 -2.00622,-2.112487 2.00622,-2.109187 z m 0.33437,1.08595 1.00311,1.016635 -1.00311,1.016634 z m 0,4.224975 1.00311,1.016634 -1.00311,1.016635 z"
       id="path3216" />
  </g>
</svg>
