<?xml version="1.0" encoding="UTF-8" standalone="no"?>
<!-- Created with Inkscape (http://www.inkscape.org/) -->

<svg
   xmlns:dc="http://purl.org/dc/elements/1.1/"
   xmlns:cc="http://creativecommons.org/ns#"
   xmlns:rdf="http://www.w3.org/1999/02/22-rdf-syntax-ns#"
   xmlns:svg="http://www.w3.org/2000/svg"
   xmlns="http://www.w3.org/2000/svg"
   xmlns:sodipodi="http://sodipodi.sourceforge.net/DTD/sodipodi-0.dtd"
   xmlns:inkscape="http://www.inkscape.org/namespaces/inkscape"
   width="24"
   height="24"
   viewBox="0 0 24 24"
   id="svg2"
   version="1.1"
   inkscape:version="0.92.1 r"
   sodipodi:docname="unknown.svg">
  <defs
     id="defs4">
    <filter
       style="color-interpolation-filters:sRGB"
       id="filter3798"
       inkscape:label="Glow"
       inkscape:menu="Shadows and Glows"
       inkscape:menu-tooltip="Glow of object's own color at the edges">
      <feGaussianBlur
         id="feGaussianBlur3800"
         stdDeviation="5"
         result="result91" />
      <feComposite
         id="feComposite3802"
         in2="result91"
         in="SourceGraphic"
         operator="over" />
    </filter>
    <linearGradient
       id="linearGradient3759">
      <stop
         style="stop-color:#ffffff;stop-opacity:1;"
         offset="0"
         id="stop3761" />
      <stop
         style="stop-color:#ffffff;stop-opacity:0;"
         offset="1"
         id="stop3763" />
    </linearGradient>
    <filter
       style="color-interpolation-filters:sRGB"
       id="filter4192"
       inkscape:label="Glow"
       inkscape:menu="Shadows and Glows"
       inkscape:menu-tooltip="Glow of object's own color at the edges">
      <feGaussianBlur
         id="feGaussianBlur4194"
         stdDeviation="5"
         result="result91" />
      <feComposite
         id="feComposite4196"
         in2="result91"
         in="SourceGraphic"
         operator="over" />
    </filter>
    <filter
       style="color-interpolation-filters:sRGB"
       id="filter3798-5"
       inkscape:label="Glow"
       inkscape:menu="Shadows and Glows"
       inkscape:menu-tooltip="Glow of object's own color at the edges">
      <feGaussianBlur
         id="feGaussianBlur3800-8"
         stdDeviation="5"
         result="result91" />
      <feComposite
         id="feComposite3802-8"
         in2="result91"
         in="SourceGraphic"
         operator="over" />
    </filter>
    <filter
       style="color-interpolation-filters:sRGB"
       id="filter3798-5-2"
       inkscape:label="Glow"
       inkscape:menu="Shadows and Glows"
       inkscape:menu-tooltip="Glow of object's own color at the edges">
      <feGaussianBlur
         id="feGaussianBlur3800-8-4"
         stdDeviation="5"
         result="result91" />
      <feComposite
         id="feComposite3802-8-9"
         in2="result91"
         in="SourceGraphic"
         operator="over" />
    </filter>
  </defs>
  <sodipodi:namedview
     id="base"
     pagecolor="#ffffff"
     bordercolor="#666666"
     borderopacity="1.0"
     inkscape:pageopacity="0.0"
     inkscape:pageshadow="2"
     inkscape:zoom="22.4"
     inkscape:cx="13.357349"
     inkscape:cy="12.684744"
     inkscape:document-units="px"
     inkscape:current-layer="layer1"
     showgrid="false"
     units="px"
     inkscape:window-width="1491"
     inkscape:window-height="865"
     inkscape:window-x="1014"
     inkscape:window-y="17"
     inkscape:window-maximized="0"
     fit-margin-top="0"
     fit-margin-left="0"
     fit-margin-right="0"
     fit-margin-bottom="0" />
  <metadata
     id="metadata7">
    <rdf:RDF>
      <cc:Work
         rdf:about="">
        <dc:format>image/svg+xml</dc:format>
        <dc:type
           rdf:resource="http://purl.org/dc/dcmitype/StillImage" />
        <dc:title></dc:title>
      </cc:Work>
    </rdf:RDF>
  </metadata>
  <g
     inkscape:label="Controller"
     inkscape:groupmode="layer"
     id="layer1"
     transform="translate(-240.24047,-784.63652)"
     style="display:inline">
    <g
       id="g4196"
       transform="matrix(0.05309377,0,0,0.05309377,232.38522,757.82872)">
      <path
         sodipodi:nodetypes="cccccccccc"
         inkscape:connector-curvature="0"
         id="LGRIP"
         d="m 390.63272,648.81596 c -11.78993,-4.4875 -85.69242,-15.79789 -102.13822,-17.14412 -17.90712,8.56832 -28.0742,22.58347 -29.82718,42.51958 l 0.63474,47.59657 c -0.55869,14.59846 4.67422,40.28362 23.79833,44.74073 l 116.13554,-13.32704 c 12.12598,-5.50232 10.14488,-8.91459 6.34624,-12.05771 -10.81472,-8.85246 -23.79037,-28.69912 -23.16368,-39.34656 0.50253,-14.43269 1.57474,-25.11649 19.69579,-38.58706 4.01937,-2.30096 -1.13067,-9.93728 -11.48156,-14.39439 z"
         style="opacity:0;fill:#000000;fill-opacity:0.1372549;fill-rule:evenodd;stroke:#000000;stroke-width:7.10775232px;stroke-linecap:butt;stroke-linejoin:miter;stroke-opacity:0.28638497" />
      <path
         sodipodi:nodetypes="cccccccccc"
         inkscape:connector-curvature="0"
         id="RGRIP"
         d="m 504.50639,648.81596 c 11.78993,-4.4875 85.69242,-15.79789 102.13822,-17.14412 17.90712,8.56832 28.0742,22.58347 29.82718,42.51958 l -0.63474,47.59657 c 0.55869,14.59846 -4.67422,40.28362 -23.79833,44.74073 L 495.90318,753.20168 c -12.12598,-5.50232 -10.14488,-8.91459 -6.34624,-12.05771 10.81472,-8.85246 23.79037,-28.69912 23.16368,-39.34656 -0.50253,-14.43269 -1.57474,-25.11649 -19.69579,-38.58706 -4.01937,-2.30096 1.13067,-9.93728 11.48156,-14.39439 z"
         style="opacity:0;fill:#000000;fill-opacity:0.1372549;fill-rule:evenodd;stroke:#000000;stroke-width:7.10775232px;stroke-linecap:butt;stroke-linejoin:miter;stroke-opacity:0.28638497" />
    </g>
    <g
       aria-label="?"
       style="font-style:normal;font-variant:normal;font-weight:normal;font-stretch:normal;font-size:30.58693314px;line-height:125%;font-family:'Ubuntu Mono';-inkscape-font-specification:'Ubuntu Mono';letter-spacing:0px;word-spacing:0px;fill:#00435f;fill-opacity:1;stroke:#77bfff;stroke-width:0.25;stroke-linecap:butt;stroke-linejoin:miter;stroke-miterlimit:4;stroke-dasharray:none;stroke-opacity:1"
       id="text4504">
      <path
         d="m 250.22174,799.67995 -0.0306,-0.58116 q 0,-1.31523 0.67291,-2.26343 0.67292,-0.97878 1.46818,-1.80463 0.82584,-0.82584 1.49876,-1.65169 0.67291,-0.82585 0.67291,-1.89639 0,-1.16231 -0.73409,-1.8658 -0.73408,-0.7035 -2.17167,-0.7035 -0.88702,0 -1.77404,0.2141 -0.85644,0.21411 -1.74346,0.7035 l -0.7035,-1.95756 q 0.91761,-0.51998 2.07992,-0.79526 1.1623,-0.30587 2.47754,-0.30587 1.55993,0 2.53871,0.42822 1.00937,0.42821 1.59052,1.10113 0.58115,0.64232 0.79526,1.43758 0.2447,0.79526 0.2447,1.52935 0,0.91761 -0.36704,1.65169 -0.33646,0.7035 -0.85644,1.34583 -0.51998,0.64232 -1.13172,1.22348 -0.61173,0.58115 -1.13171,1.22347 -0.51998,0.61174 -0.88702,1.34583 -0.33646,0.73409 -0.33646,1.62111 z m 1.31524,6.82088 q -0.85644,0 -1.46818,-0.55056 -0.58115,-0.58115 -0.58115,-1.52935 0,-0.94819 0.58115,-1.49876 0.61174,-0.58115 1.46818,-0.58115 0.82584,0 1.43758,0.58115 0.61174,0.55057 0.61174,1.49876 0,0.9482 -0.61174,1.52935 -0.61174,0.55056 -1.43758,0.55056 z"
         style="fill:#00435f;fill-opacity:1;stroke-width:0.25;stroke-miterlimit:4;stroke-dasharray:none;stroke:#77bfff;stroke-opacity:1"
         id="path4506" />
    </g>
  </g>
</svg>
