<?xml version="1.0" encoding="UTF-8" standalone="no"?>
<!-- Created with Inkscape (http://www.inkscape.org/) -->

<svg
   xmlns:dc="http://purl.org/dc/elements/1.1/"
   xmlns:cc="http://creativecommons.org/ns#"
   xmlns:rdf="http://www.w3.org/1999/02/22-rdf-syntax-ns#"
   xmlns:svg="http://www.w3.org/2000/svg"
   xmlns="http://www.w3.org/2000/svg"
   xmlns:sodipodi="http://sodipodi.sourceforge.net/DTD/sodipodi-0.dtd"
   xmlns:inkscape="http://www.inkscape.org/namespaces/inkscape"
   width="512"
   height="512"
   viewBox="0 0 512 512"
   id="svg2"
   version="1.1"
   inkscape:version="0.92.1 r"
   sodipodi:docname="binding-display.bw.svg"
   inkscape:export-filename="/data/tom/Compile/SCC/images/menu-icons/system/binding-display.bw.png"
   inkscape:export-xdpi="96"
   inkscape:export-ydpi="96">
  <defs
     id="defs4">
    <filter
       style="color-interpolation-filters:sRGB"
       id="filter3798"
       inkscape:label="Glow"
       inkscape:menu="Shadows and Glows"
       inkscape:menu-tooltip="Glow of object's own color at the edges">
      <feGaussianBlur
         id="feGaussianBlur3800"
         stdDeviation="5"
         result="result91" />
      <feComposite
         id="feComposite3802"
         in2="result91"
         in="SourceGraphic"
         operator="over" />
    </filter>
    <linearGradient
       id="linearGradient3759">
      <stop
         style="stop-color:#ffffff;stop-opacity:1;"
         offset="0"
         id="stop3761" />
      <stop
         style="stop-color:#ffffff;stop-opacity:0;"
         offset="1"
         id="stop3763" />
    </linearGradient>
    <filter
       style="color-interpolation-filters:sRGB"
       id="filter4192"
       inkscape:label="Glow"
       inkscape:menu="Shadows and Glows"
       inkscape:menu-tooltip="Glow of object's own color at the edges">
      <feGaussianBlur
         id="feGaussianBlur4194"
         stdDeviation="5"
         result="result91" />
      <feComposite
         id="feComposite4196"
         in2="result91"
         in="SourceGraphic"
         operator="over" />
    </filter>
    <filter
       style="color-interpolation-filters:sRGB"
       id="filter3798-5"
       inkscape:label="Glow"
       inkscape:menu="Shadows and Glows"
       inkscape:menu-tooltip="Glow of object's own color at the edges">
      <feGaussianBlur
         id="feGaussianBlur3800-8"
         stdDeviation="5"
         result="result91" />
      <feComposite
         id="feComposite3802-8"
         in2="result91"
         in="SourceGraphic"
         operator="over" />
    </filter>
    <filter
       style="color-interpolation-filters:sRGB"
       id="filter3798-5-2"
       inkscape:label="Glow"
       inkscape:menu="Shadows and Glows"
       inkscape:menu-tooltip="Glow of object's own color at the edges">
      <feGaussianBlur
         id="feGaussianBlur3800-8-4"
         stdDeviation="5"
         result="result91" />
      <feComposite
         id="feComposite3802-8-9"
         in2="result91"
         in="SourceGraphic"
         operator="over" />
    </filter>
  </defs>
  <sodipodi:namedview
     id="base"
     pagecolor="#ffffff"
     bordercolor="#666666"
     borderopacity="1.0"
     inkscape:pageopacity="0.0"
     inkscape:pageshadow="2"
     inkscape:zoom="0.9899495"
     inkscape:cx="80.155093"
     inkscape:cy="198.94756"
     inkscape:document-units="px"
     inkscape:current-layer="g4544"
     showgrid="false"
     units="px"
     inkscape:window-width="1478"
     inkscape:window-height="908"
     inkscape:window-x="1503"
     inkscape:window-y="47"
     inkscape:window-maximized="0"
     fit-margin-top="0"
     fit-margin-left="0"
     fit-margin-right="0"
     fit-margin-bottom="0" />
  <metadata
     id="metadata7">
    <rdf:RDF>
      <cc:Work
         rdf:about="">
        <dc:format>image/svg+xml</dc:format>
        <dc:type
           rdf:resource="http://purl.org/dc/dcmitype/StillImage" />
        <dc:title />
      </cc:Work>
    </rdf:RDF>
  </metadata>
  <g
     inkscape:label="Controller"
     inkscape:groupmode="layer"
     id="layer1"
     transform="translate(-240.24047,-296.63652)"
     style="display:inline"
     sodipodi:insensitive="true">
    <path
       style="fill:#000000;fill-opacity:1;fill-rule:evenodd;stroke:none;stroke-width:3.21198606;stroke-linecap:butt;stroke-linejoin:miter;stroke-miterlimit:4;stroke-dasharray:none;stroke-opacity:1"
       d="m 426.8592,347.49212 c -26.27138,0.37109 -53.7121,-0.1397 -78.01529,1.2176 -17.21584,1.03546 -22.96463,1.16291 -38.51765,9.80017 -7.91441,4.39534 -14.92932,11.47828 -18.17486,18.20456 -7.18837,21.14804 -27.57689,103.13485 -31.06357,141.83521 -0.70552,22.79171 -3.23018,48.45557 11.40383,63.99809 11.38514,10.64464 18.6249,15.79303 31.83571,20.49126 13.96012,0.0608 18.76494,0.72635 28.98475,-11.96808 12.51244,-21.52421 26.25662,-47.90448 37.32975,-63.67142 7.71005,-3.55069 14.80797,-3.87499 25.9556,-4.06855 14.10709,-0.3111 2.10711,-0.54541 31.03388,-0.80192 0.035,-2e-4 0.0243,2.1e-4 0.0593,0 27.57859,-0.15601 15.75461,0.10187 51.04998,0.83156 11.14763,0.19357 18.24554,0.48809 25.9556,4.03887 11.07313,15.76694 24.8173,42.1472 37.32974,63.67141 10.21982,12.69445 15.02448,12.0289 28.98475,11.96808 13.21066,-4.69822 20.45058,-9.84662 31.83571,-20.49126 14.63401,-15.54251 12.10935,-41.20638 11.40384,-63.99808 -3.48659,-38.70032 -23.87495,-120.68713 -31.06349,-141.83517 -3.24537,-6.72628 -10.26044,-13.80922 -18.17486,-18.20456 -15.553,-8.63696 -43.69385,-8.94289 -60.90954,-9.97836 -24.29817,-1.36152 -50.17848,-0.67252 -76.41164,-1.0394 -0.28009,-0.004 -0.55134,0.004 -0.83157,0 z"
       id="path4166-6"
       inkscape:connector-curvature="0" />
    <circle
       style="color:#000000;fill:#fefefe;fill-opacity:1;stroke:#ffffff;stroke-width:0.7006284;stroke-opacity:1"
       id="RPAD"
       cx="538.06305"
       cy="415.27597"
       r="46.23056" />
    <circle
       style="color:#000000;fill:#fefefe;fill-opacity:1;stroke:#ffffff;stroke-width:0.7006284;stroke-opacity:1"
       id="C"
       cx="438.08917"
       cy="409.1759"
       r="14.405931" />
    <rect
       style="color:#000000;fill:#fefefe;fill-opacity:1;stroke:#ffffff;stroke-width:0.7006284;stroke-opacity:1"
       id="rect4172"
       width="22.306599"
       height="12.57281"
       x="457.76169"
       y="407.78384"
       ry="6.2864051" />
    <rect
       style="color:#000000;fill:#fefefe;fill-opacity:1;stroke:#ffffff;stroke-width:0.7006284;stroke-opacity:1"
       id="rect4172-1"
       width="22.306599"
       height="12.57281"
       x="-418.98297"
       y="407.78384"
       ry="6.2864051"
       transform="scale(-1,1)" />
    <circle
       r="46.23056"
       cy="415.27597"
       cx="338.92624"
       id="circle4232"
       style="color:#000000;fill:#fefefe;fill-opacity:1;stroke:#ffffff;stroke-width:0.7006284;stroke-opacity:1" />
    <path
       style="color:#000000;fill:#fefefe;fill-opacity:1;stroke:#000000;stroke-width:3.50314212;stroke-miterlimit:4;stroke-dasharray:none;stroke-opacity:1"
       d="m 338.92618,376.12896 c -4.52809,0 -8.17351,3.64544 -8.17351,8.17351 v 22.79993 h -22.79916 c -4.52809,0 -8.17336,3.64466 -8.17336,8.17274 0,4.52793 3.64527,8.17336 8.17336,8.17336 h 22.79916 v 22.79992 c 0,4.52808 3.64542,8.17274 8.17351,8.17274 4.52808,0 8.17351,-3.64466 8.17351,-8.17274 V 423.4485 h 22.79915 c 4.52793,0 8.17336,-3.64543 8.17336,-8.17336 0,-4.52808 -3.64543,-8.17274 -8.17336,-8.17274 h -22.79915 v -22.79993 c 0,-4.52807 -3.64543,-8.17351 -8.17351,-8.17351 z"
       id="rect4249"
       inkscape:connector-curvature="0" />
    <path
       inkscape:connector-curvature="0"
       style="color:#000000;fill:#fefefe;fill-opacity:1;stroke:#ffffff;stroke-width:0.7006284;stroke-opacity:1"
       d="m 424.99594,470.97497 a 28.668289,28.309939 0 0 1 -28.66833,28.30995 28.668289,28.309939 0 0 1 -28.66833,-28.30995 28.668289,28.309939 0 0 1 28.66833,-28.30994 28.668289,28.309939 0 0 1 28.66833,28.30994 z"
       id="path4168-1" />
    <ellipse
       style="color:#000000;fill:#191919;fill-opacity:1;stroke:#242424;stroke-width:0.7006284;stroke-opacity:1"
       id="path4168-1-2"
       cx="396.22775"
       cy="470.95877"
       rx="20.478027"
       ry="20.222055" />
    <path
       style="fill:#151515;fill-opacity:1;fill-rule:evenodd;stroke:none;stroke-width:2.40898943;stroke-linecap:butt;stroke-linejoin:miter;stroke-miterlimit:4;stroke-dasharray:none;stroke-opacity:1"
       d="m 573.16552,366.12475 c -1.9274,-6.89308 -3.68648,-20.94488 -27.53129,-24.37957 -9.89777,-1.3715 -23.52444,-3.73954 -36.27819,-2.72445 -4.73533,0.57172 -6.52026,8.6695 -7.7505,11.37403 23.17822,1.47642 54.48464,1.23466 71.55998,15.72999 z"
       id="RB"
       inkscape:connector-curvature="0"
       sodipodi:nodetypes="ccccc" />
    <path
       style="fill:#151515;fill-opacity:1;fill-rule:evenodd;stroke:none;stroke-width:2.40898943;stroke-linecap:butt;stroke-linejoin:miter;stroke-miterlimit:4;stroke-dasharray:none;stroke-opacity:1"
       d="m 300.45313,368.62699 c 1.9274,-6.89308 3.68663,-23.44712 27.53144,-26.88181 9.89747,-1.3715 23.52429,-3.73954 36.27819,-2.72445 4.73518,0.57172 6.52011,11.17173 7.75035,13.87627 -23.17822,1.47642 -54.48464,1.23466 -71.55998,15.72999 z"
       id="LB"
       inkscape:connector-curvature="0"
       sodipodi:nodetypes="ccccc"
       LT="path4420-4" />
    <circle
       style="color:#000000;fill:#fefefe;fill-opacity:1;stroke:#ffffff;stroke-width:0.7006284;stroke-opacity:1"
       id="path4170-0"
       cy="449.79843"
       cx="482.21152"
       r="9.75846" />
    <circle
       style="color:#000000;fill:#fefefe;fill-opacity:1;stroke:#ffffff;stroke-width:0.7006284;stroke-opacity:1"
       id="path4170-0-8-4"
       cy="470.53281"
       cx="461.33353"
       r="9.75846" />
    <circle
       style="color:#000000;fill:#fefefe;fill-opacity:1;stroke:#ffffff;stroke-width:0.7006284;stroke-opacity:1"
       id="path4170-0-8"
       cy="491.5549"
       cx="482.21152"
       r="9.75846" />
    <circle
       style="color:#000000;fill:#fefefe;fill-opacity:1;stroke:#ffffff;stroke-width:0.7006284;stroke-opacity:1"
       id="path4170-0-8-4-6"
       cy="470.53281"
       cx="501.48312"
       r="9.75846" />
    <g
       id="g4196"
       transform="matrix(0.80299654,0,0,0.80299654,77.617312,-108.70754)">
      <path
         sodipodi:nodetypes="cccccccccc"
         inkscape:connector-curvature="0"
         id="LGRIP"
         d="m 390.63272,648.81596 c -11.78993,-4.4875 -85.69242,-15.79789 -102.13822,-17.14412 -17.90712,8.56832 -28.0742,22.58347 -29.82718,42.51958 l 0.63474,47.59657 c -0.55869,14.59846 4.67422,40.28362 23.79833,44.74073 l 116.13554,-13.32704 c 12.12598,-5.50232 10.14488,-8.91459 6.34624,-12.05771 -10.81472,-8.85246 -23.79037,-28.69912 -23.16368,-39.34656 0.50253,-14.43269 1.57474,-25.11649 19.69579,-38.58706 4.01937,-2.30096 -1.13067,-9.93728 -11.48156,-14.39439 z"
         style="opacity:0;fill:#000000;fill-opacity:0.1372549;fill-rule:evenodd;stroke:#000000;stroke-width:7.10775232px;stroke-linecap:butt;stroke-linejoin:miter;stroke-opacity:0.28638497" />
      <path
         sodipodi:nodetypes="cccccccccc"
         inkscape:connector-curvature="0"
         id="RGRIP"
         d="m 504.50639,648.81596 c 11.78993,-4.4875 85.69242,-15.79789 102.13822,-17.14412 17.90712,8.56832 28.0742,22.58347 29.82718,42.51958 l -0.63474,47.59657 c 0.55869,14.59846 -4.67422,40.28362 -23.79833,44.74073 L 495.90318,753.20168 c -12.12598,-5.50232 -10.14488,-8.91459 -6.34624,-12.05771 10.81472,-8.85246 23.79037,-28.69912 23.16368,-39.34656 -0.50253,-14.43269 -1.57474,-25.11649 -19.69579,-38.58706 -4.01937,-2.30096 1.13067,-9.93728 11.48156,-14.39439 z"
         style="opacity:0;fill:#000000;fill-opacity:0.1372549;fill-rule:evenodd;stroke:#000000;stroke-width:7.10775232px;stroke-linecap:butt;stroke-linejoin:miter;stroke-opacity:0.28638497" />
    </g>
  </g>
  <g
     style="display:inline"
     inkscape:label="Looking Glass BG"
     id="g4544"
     inkscape:groupmode="layer">
    <g
       transform="matrix(0.42463644,0,0,0.42463644,77.534996,71.245447)"
       id="g4542"
       style="display:inline;fill:#ffffff;fill-opacity:1"
       inkscape:export-xdpi="96"
       inkscape:export-ydpi="96">
      <g
         transform="matrix(1,0,0,-1,0,480)"
         id="g4540"
         style="fill:#ffffff;fill-opacity:1">
        <path
           inkscape:connector-curvature="0"
           d="M 968.2,-369.9 667.1,-68.8 C 750.9,67.8 734,248.8 615.7,367.2 477.1,505.8 252.5,505.8 114,367.2 -24.6,228.6 -24.6,4 113.9,-134.5 219.2,-250.4 412.8,-263 547.3,-186.4 l 302.2,-302.2 c 43.6,-43.6 76.9,-14.9 104.2,12.4 27.3,27.3 58.1,62.7 14.5,106.3 z M 528.1,-45.6 c -90.9,-90.9 -238.2,-90.9 -329,0 -90.9,90.9 -90.9,238.2 0,329 90.9,90.9 238.2,90.9 329,0 90.8,-90.9 90.8,-238.1 0,-329 z"
           id="path4538"
           style="fill:#ffffff;fill-opacity:1" />
      </g>
    </g>
    <ellipse
       style="color:#000000;clip-rule:nonzero;display:inline;overflow:visible;visibility:visible;opacity:1;isolation:auto;mix-blend-mode:normal;color-interpolation:sRGB;color-interpolation-filters:linearRGB;solid-color:#000000;solid-opacity:1;vector-effect:none;fill:#ffffff;fill-opacity:0.58264464;fill-rule:evenodd;stroke:none;stroke-width:2.27565098;stroke-linecap:butt;stroke-linejoin:miter;stroke-miterlimit:4;stroke-dasharray:none;stroke-dashoffset:0;stroke-opacity:1;marker:none;color-rendering:auto;image-rendering:auto;shape-rendering:auto;text-rendering:auto;enable-background:accumulate"
       id="path4526"
       cx="230.01208"
       cy="224.34331"
       rx="106.77348"
       ry="104.78757" />
  </g>
  <g
     inkscape:groupmode="layer"
     id="layer2"
     inkscape:label="Looking Glass"
     style="display:inline">
    <g
       style="display:inline;fill:#000000;fill-opacity:1"
       id="g4523"
       transform="matrix(0.40276963,0,0,0.40276963,84.265202,77.531666)">
      <g
         id="g4521"
         transform="matrix(1,0,0,-1,0,480)"
         style="fill:#000000;fill-opacity:1">
        <path
           id="path4519"
           d="M 968.2,-369.9 667.1,-68.8 C 750.9,67.8 734,248.8 615.7,367.2 477.1,505.8 252.5,505.8 114,367.2 -24.6,228.6 -24.6,4 113.9,-134.5 219.2,-250.4 412.8,-263 547.3,-186.4 l 302.2,-302.2 c 43.6,-43.6 76.9,-14.9 104.2,12.4 27.3,27.3 58.1,62.7 14.5,106.3 z M 528.1,-45.6 c -90.9,-90.9 -238.2,-90.9 -329,0 -90.9,90.9 -90.9,238.2 0,329 90.9,90.9 238.2,90.9 329,0 90.8,-90.9 90.8,-238.1 0,-329 z"
           inkscape:connector-curvature="0"
           style="fill:#000000;fill-opacity:1" />
      </g>
    </g>
  </g>
</svg>
