<?xml version="1.0" encoding="UTF-8" standalone="no"?>
<!-- Created with Inkscape (http://www.inkscape.org/) -->

<svg
   xmlns:dc="http://purl.org/dc/elements/1.1/"
   xmlns:cc="http://creativecommons.org/ns#"
   xmlns:rdf="http://www.w3.org/1999/02/22-rdf-syntax-ns#"
   xmlns:svg="http://www.w3.org/2000/svg"
   xmlns="http://www.w3.org/2000/svg"
   xmlns:sodipodi="http://sodipodi.sourceforge.net/DTD/sodipodi-0.dtd"
   xmlns:inkscape="http://www.inkscape.org/namespaces/inkscape"
   width="22"
   height="22"
   viewBox="0 0 21.999999 22"
   id="svg2"
   version="1.1"
   inkscape:version="0.92.1 r"
   sodipodi:docname="3.bw.svg">
  <defs
     id="defs4" />
  <sodipodi:namedview
     id="base"
     pagecolor="#ffffff"
     bordercolor="#666666"
     borderopacity="1.0"
     inkscape:pageopacity="0.0"
     inkscape:pageshadow="2"
     inkscape:zoom="15.839192"
     inkscape:cx="25.026043"
     inkscape:cy="5.482926"
     inkscape:document-units="px"
     inkscape:current-layer="layer1"
     showgrid="false"
     units="px"
     inkscape:window-width="1500"
     inkscape:window-height="923"
     inkscape:window-x="1104"
     inkscape:window-y="98"
     inkscape:window-maximized="0"
     fit-margin-top="0"
     fit-margin-left="0"
     fit-margin-right="0"
     fit-margin-bottom="0" />
  <metadata
     id="metadata7">
    <rdf:RDF>
      <cc:Work
         rdf:about="">
        <dc:format>image/svg+xml</dc:format>
        <dc:type
           rdf:resource="http://purl.org/dc/dcmitype/StillImage" />
        <dc:title />
      </cc:Work>
    </rdf:RDF>
  </metadata>
  <g
     inkscape:label="Layer 1"
     inkscape:groupmode="layer"
     id="layer1"
     transform="translate(-242.33293,-859.63165)">
    <circle
       style="color:#000000;display:inline;overflow:visible;visibility:visible;opacity:1;fill:#000000;fill-opacity:0.1372549;fill-rule:evenodd;stroke:#000000;stroke-width:0.66388923;stroke-linecap:butt;stroke-linejoin:miter;stroke-miterlimit:4;stroke-dasharray:none;stroke-dashoffset:0;stroke-opacity:1;marker:none;enable-background:accumulate"
       id="path4170-0-8"
       cy="870.63165"
       cx="253.33293"
       r="10.069116" />
    <g
       aria-label="3"
       style="font-style:normal;font-variant:normal;font-weight:normal;font-stretch:normal;font-size:40px;line-height:125%;font-family:'Ubuntu Mono';-inkscape-font-specification:'Ubuntu Mono';letter-spacing:0px;word-spacing:0px;opacity:1;fill:#000000;fill-opacity:1;stroke:none;stroke-width:1px;stroke-linecap:butt;stroke-linejoin:miter;stroke-opacity:1"
       id="text923-1-2"
       transform="matrix(0.77344075,0,0,0.77344075,29.959567,193.31094)">
      <path
         d="m 287.67542,883.05744 q 2.31734,0 3.28534,-0.90933 0.99733,-0.93867 0.99733,-2.49333 0,-0.99734 -0.41067,-1.672 -0.41066,-0.67467 -1.08533,-1.08534 -0.67467,-0.41066 -1.55467,-0.58666 -0.88,-0.176 -1.848,-0.176 h -0.616 v -1.96534 h 0.85067 q 0.64533,0 1.32,-0.11733 0.704,-0.14667 1.26133,-0.46933 0.58667,-0.352 0.93867,-0.93867 0.352,-0.58667 0.352,-1.496 0,-1.496 -0.93867,-2.112 -0.90933,-0.64533 -2.14133,-0.64533 -1.26133,0 -2.14133,0.38133 -0.88,0.352 -1.46667,0.73333 l -0.93867,-1.848 q 0.616,-0.44 1.848,-0.90933 1.26134,-0.49867 2.78667,-0.49867 1.43733,0 2.464,0.352 1.02667,0.352 1.672,0.99734 0.67467,0.64533 0.99733,1.52533 0.32267,0.85067 0.32267,1.87733 0,1.43734 -0.76267,2.43467 -0.73333,0.99733 -1.90666,1.52533 1.408,0.41067 2.43466,1.61334 1.02667,1.17333 1.02667,3.13866 0,1.17334 -0.41067,2.2 -0.38133,0.99734 -1.20266,1.73067 -0.792,0.73333 -2.08267,1.144 -1.26133,0.41067 -3.02133,0.41067 -0.67467,0 -1.408,-0.11734 -0.704,-0.088 -1.32,-0.264 -0.616,-0.14666 -1.11467,-0.29333 -0.46933,-0.176 -0.67467,-0.264 l 0.46934,-2.08267 q 0.46933,0.23467 1.496,0.55734 1.02666,0.32266 2.52266,0.32266 z"
         style="font-size:29.33333397px;fill:#000000"
         id="path982"
         inkscape:connector-curvature="0" />
    </g>
  </g>
</svg>
