<?xml version="1.0" encoding="UTF-8" standalone="no"?>
<!-- Created with Inkscape (http://www.inkscape.org/) -->

<svg
   xmlns:dc="http://purl.org/dc/elements/1.1/"
   xmlns:cc="http://creativecommons.org/ns#"
   xmlns:rdf="http://www.w3.org/1999/02/22-rdf-syntax-ns#"
   xmlns:svg="http://www.w3.org/2000/svg"
   xmlns="http://www.w3.org/2000/svg"
   xmlns:sodipodi="http://sodipodi.sourceforge.net/DTD/sodipodi-0.dtd"
   xmlns:inkscape="http://www.inkscape.org/namespaces/inkscape"
   width="22"
   height="22"
   viewBox="0 0 21.999999 22"
   id="svg2"
   version="1.1"
   inkscape:version="0.92.1 r"
   sodipodi:docname="2.bw.svg">
  <defs
     id="defs4" />
  <sodipodi:namedview
     id="base"
     pagecolor="#ffffff"
     bordercolor="#666666"
     borderopacity="1.0"
     inkscape:pageopacity="0.0"
     inkscape:pageshadow="2"
     inkscape:zoom="22.4"
     inkscape:cx="7.9002585"
     inkscape:cy="12.076377"
     inkscape:document-units="px"
     inkscape:current-layer="layer1"
     showgrid="false"
     units="px"
     inkscape:window-width="1500"
     inkscape:window-height="923"
     inkscape:window-x="1104"
     inkscape:window-y="98"
     inkscape:window-maximized="0"
     fit-margin-top="0"
     fit-margin-left="0"
     fit-margin-right="0"
     fit-margin-bottom="0" />
  <metadata
     id="metadata7">
    <rdf:RDF>
      <cc:Work
         rdf:about="">
        <dc:format>image/svg+xml</dc:format>
        <dc:type
           rdf:resource="http://purl.org/dc/dcmitype/StillImage" />
        <dc:title></dc:title>
      </cc:Work>
    </rdf:RDF>
  </metadata>
  <g
     inkscape:label="Layer 1"
     inkscape:groupmode="layer"
     id="layer1"
     transform="translate(-242.33293,-859.63165)">
    <circle
       style="color:#000000;display:inline;overflow:visible;visibility:visible;opacity:1;fill:#000000;fill-opacity:0.1372549;fill-rule:evenodd;stroke:#000000;stroke-width:0.66388923;stroke-linecap:butt;stroke-linejoin:miter;stroke-miterlimit:4;stroke-dasharray:none;stroke-dashoffset:0;stroke-opacity:1;marker:none;enable-background:accumulate"
       id="path4170-0-8"
       cy="870.63165"
       cx="253.33293"
       r="10.069116" />
    <g
       aria-label="2"
       style="font-style:normal;font-variant:normal;font-weight:normal;font-stretch:normal;font-size:40px;line-height:125%;font-family:'Ubuntu Mono';-inkscape-font-specification:'Ubuntu Mono';letter-spacing:0px;word-spacing:0px;opacity:1;fill:#000000;fill-opacity:1;stroke:none;stroke-width:1px;stroke-linecap:butt;stroke-linejoin:miter;stroke-opacity:1"
       id="text923-1"
       transform="matrix(0.77344075,0,0,0.77344075,49.02053,193.70455)">
      <path
         d="m 269.1177,870.97654 q 0,0.93867 -0.38133,1.81867 -0.352,0.88 -0.968,1.73066 -0.58667,0.85067 -1.34934,1.672 -0.76266,0.82134 -1.55466,1.61334 -0.44,0.44 -1.02667,1.056 -0.58667,0.616 -1.11467,1.26133 -0.528,0.64533 -0.88,1.26133 -0.352,0.616 -0.352,1.056 h 8.36 v 2.05334 h -11 q -0.0293,-0.14667 -0.0293,-0.29334 0,-0.176 0,-0.32266 0,-1.232 0.41067,-2.288 0.41066,-1.056 1.056,-1.99467 0.64533,-0.93867 1.43733,-1.76 0.82133,-0.85067 1.61333,-1.64267 0.64534,-0.64533 1.232,-1.26133 0.616,-0.616 1.056,-1.232 0.46934,-0.616 0.73334,-1.26133 0.29333,-0.67467 0.29333,-1.37867 0,-0.792 -0.264,-1.34933 -0.23467,-0.55734 -0.67467,-0.90934 -0.41066,-0.38133 -0.968,-0.55733 -0.55733,-0.176 -1.20266,-0.176 -0.76267,0 -1.408,0.20533 -0.616,0.20534 -1.11467,0.49867 -0.46933,0.29333 -0.82133,0.58667 -0.352,0.264 -0.528,0.44 l -1.20267,-1.70134 q 0.23467,-0.264 0.704,-0.64533 0.46933,-0.38133 1.11467,-0.704 0.67466,-0.352 1.496,-0.58667 0.82133,-0.23466 1.76,-0.23466 2.84533,0 4.19466,1.32 1.37867,1.29066 1.37867,3.72533 z"
         style="font-size:29.33333397px;fill:#000000"
         id="path985"
         inkscape:connector-curvature="0" />
    </g>
  </g>
</svg>
