<?xml version="1.0" encoding="UTF-8" standalone="no"?>
<svg
   xmlns:dc="http://purl.org/dc/elements/1.1/"
   xmlns:cc="http://creativecommons.org/ns#"
   xmlns:rdf="http://www.w3.org/1999/02/22-rdf-syntax-ns#"
   xmlns:svg="http://www.w3.org/2000/svg"
   xmlns="http://www.w3.org/2000/svg"
   xmlns:sodipodi="http://sodipodi.sourceforge.net/DTD/sodipodi-0.dtd"
   xmlns:inkscape="http://www.inkscape.org/namespaces/inkscape"
   width="446"
   height="345"
   viewBox="0 0 118.00417 91.28125"
   version="1.1"
   id="svg1015"
   sodipodi:docname="dualsense.svg"
   inkscape:version="1.0.1 (3bc2e813f5, 2020-09-07)">
  <defs
     id="defs1009">
    <inkscape:path-effect
       center_point="34.060482,13.573903"
       end_point="34.060482,15.695551"
       start_point="34.060482,11.452255"
       effect="mirror_symmetry"
       id="path-effect1825"
       is_visible="true"
       lpeversion="1"
       mode="vertical"
       discard_orig_path="false"
       fuse_paths="false"
       oposite_fuse="false"
       split_items="true" />
    <inkscape:path-effect
       effect="mirror_symmetry"
       start_point="32.825391,8.7557719"
       end_point="32.825391,14.096851"
       center_point="32.825391,11.426311"
       id="path-effect1822"
       is_visible="true"
       lpeversion="1"
       mode="vertical"
       discard_orig_path="false"
       fuse_paths="false"
       oposite_fuse="false"
       split_items="true" />
  </defs>
  <sodipodi:namedview
     id="base"
     pagecolor="#ffffff"
     bordercolor="#666666"
     borderopacity="1.0"
     inkscape:pageopacity="0.0"
     inkscape:pageshadow="2"
     inkscape:zoom="1.4"
     inkscape:cx="243.45551"
     inkscape:cy="206.27572"
     inkscape:document-units="mm"
     inkscape:current-layer="layer1"
     inkscape:document-rotation="0"
     showgrid="false"
     units="px"
     borderlayer="true"
     inkscape:pagecheckerboard="false"
     inkscape:window-width="1680"
     inkscape:window-height="1014"
     inkscape:window-x="0"
     inkscape:window-y="170"
     inkscape:window-maximized="1"
     inkscape:object-paths="true"
     inkscape:snap-smooth-nodes="true"
     inkscape:snap-intersection-paths="false"
     inkscape:snap-nodes="false">
    <inkscape:grid
       type="xygrid"
       id="grid1714" />
  </sodipodi:namedview>
  <metadata
     id="metadata1012">
    <rdf:RDF>
      <cc:Work
         rdf:about="">
        <dc:format>image/svg+xml</dc:format>
        <dc:type
           rdf:resource="http://purl.org/dc/dcmitype/StillImage" />
        <dc:title></dc:title>
      </cc:Work>
    </rdf:RDF>
  </metadata>
  <g
     inkscape:label="Layer 1"
     inkscape:groupmode="layer"
     id="layer1">
    <path
       id="path1811"
       style="opacity:1;fill:#000000;fill-opacity:0.14;stroke:#000000;stroke-width:0.762;stroke-miterlimit:4;stroke-dasharray:none;stroke-opacity:1"
       d="m 71.948207,55.783661 c 2.106671,0.09957 4.16843,0.271817 6.103611,-0.161349 3.44042,-0.616688 6.900015,0.109627 9.188064,3.751842 4.028752,6.413142 6.633817,18.6615 9.605984,20.507766 2.307391,-0.301431 4.659394,-0.442187 6.860374,-1.095259 6.15733,-1.826994 7.35188,-10.151253 7.33174,-18.764647 -0.0327,-13.985175 -3.37438,-28.909972 -10.92478,-43.959579 -6.49738,-1.59338 -12.52834,-2.740457 -16.797284,-2.879666 -0.68313,-0.02228 -1.455307,0.278565 -2.060469,0.943456 L 80.018794,13.936823 C 79.589421,13.262565 79.10684,12.94878 78.218935,12.835978 72.443624,12.102267 65.378719,11.757902 59.002083,11.757902 c -6.376636,0 -13.441541,0.344365 -19.216852,1.078076 -0.887905,0.112802 -1.370486,0.426587 -1.799859,1.100845 l -1.236653,0.189402 C 36.143557,13.461334 35.37138,13.160489 34.68825,13.182769 30.419306,13.321978 24.388346,14.469055 17.890969,16.062435 10.340566,31.112042 6.9988933,46.036839 6.9661886,60.022014 c -0.020143,8.613394 1.1744099,16.937653 7.3317354,18.764647 2.20098,0.653072 4.552985,0.793828 6.860376,1.095259 2.972167,-1.846266 5.577232,-14.094624 9.605984,-20.507766 2.288049,-3.642215 5.747644,-4.36853 9.188064,-3.751842 1.935181,0.433166 3.99694,0.260919 6.103611,0.161349 3.78164,-0.178731 9.845595,0.007 12.946124,0.007 3.100529,0 9.164484,-0.185731 12.946124,-0.007 z"
       sodipodi:nodetypes="scscsscsccszsccscsscscszs" />
    <g
       id="g2086">
      <path
         style="fill:#000000;fill-opacity:0.31;stroke:#000000;stroke-width:0.3048;stroke-linecap:butt;stroke-linejoin:miter;stroke-miterlimit:4;stroke-dasharray:none;stroke-opacity:1"
         d="m 19.777464,14.462282 c 1.76955,-1.335685 3.98458,-2.363217 7.018584,-2.792816 2.943106,-0.416729 4.798468,-0.16398 6.557391,0.174013 0.314765,0.06048 0.706999,0.68707 0.707043,1.366294 -3.490939,0.153127 -8.76369,1.09592 -14.647931,2.485778 0.0582,-0.450675 0.178665,-1.092686 0.364913,-1.233269 z"
         id="path1814"
         sodipodi:nodetypes="sssccs" />
      <path
         style="fill:#000000;fill-opacity:0.31;stroke:#000000;stroke-width:0.3048;stroke-linecap:butt;stroke-linejoin:miter;stroke-miterlimit:4;stroke-dasharray:none;stroke-opacity:1"
         d="m 20.285501,14.096847 0.12627,-0.797082 c 0.293408,-1.852133 5.113588,-4.1149651 7.610799,-4.4569228 1.809608,-0.2478002 4.259601,-0.057319 4.596235,1.7784458 l 0.206586,1.126573 c -2.522533,-0.439778 -4.311444,-0.332267 -6.378778,-0.0257 -3.660792,0.668129 -4.947587,1.635449 -6.161112,2.37469 z"
         id="path1816"
         sodipodi:nodetypes="csssccc" />
    </g>
    <g
       id="g2082">
      <path
         id="path1847"
         d="m 20.285501,14.096847 0.12627,-0.797082 c 0.293408,-1.852133 5.113588,-4.1149651 7.610799,-4.4569228 1.809608,-0.2478002 4.259601,-0.057319 4.596235,1.7784458 l 0.206586,1.126573 c -2.522533,-0.439778 -4.311444,-0.332267 -6.378778,-0.0257 -3.660792,0.668129 -4.947587,1.635449 -6.161112,2.37469 z"
         style="fill:#000000;fill-opacity:0.31;stroke:#000000;stroke-width:0.3048;stroke-linecap:butt;stroke-linejoin:miter;stroke-miterlimit:4;stroke-dasharray:none;stroke-opacity:1"
         transform="matrix(-1,0,0,1,118.00417,0)" />
      <path
         id="path1849"
         d="m 19.777464,14.462282 c 1.76955,-1.335685 3.98458,-2.363217 7.018584,-2.792816 2.943106,-0.416729 4.798468,-0.16398 6.557391,0.174013 0.314765,0.06048 0.706999,0.68707 0.707043,1.366294 -3.490939,0.153127 -8.76369,1.09592 -14.647931,2.485778 0.0582,-0.450675 0.178665,-1.092686 0.364913,-1.233269 z"
         style="fill:#000000;fill-opacity:0.31;stroke:#000000;stroke-width:0.3048;stroke-linecap:butt;stroke-linejoin:miter;stroke-miterlimit:4;stroke-dasharray:none;stroke-opacity:1"
         transform="matrix(-1,0,0,1,118.00417,0)" />
    </g>
    <path
       id="path1878"
       style="fill:#000000;fill-opacity:0.28;stroke:#000000;stroke-width:0.254;stroke-miterlimit:4;stroke-dasharray:none;stroke-opacity:1"
       d="m 46.360998,34.079279 c -2.380033,-0.0025 -4.728702,-1.812019 -5.220916,-4.286022 -1.05157,-5.285478 -3.234387,-14.329469 -2.955383,-15.383365 0.249062,-0.940794 0.796261,-1.223251 1.684165,-1.336053 5.775312,-0.733711 12.756584,-1.063582 19.133219,-1.063582 6.376635,0 13.357907,0.329871 19.133219,1.063582 0.887904,0.112802 1.435103,0.395259 1.684165,1.336053 0.279004,1.053896 -1.903813,10.097887 -2.955383,15.383365 -0.492214,2.474003 -2.840883,4.28351 -5.220916,4.286022 0,0 -8.427388,0.01334 -12.641085,0.01334 -4.213697,0 -12.641085,-0.01334 -12.641085,-0.01334 z"
       sodipodi:nodetypes="sssssssssss" />
    <g
       style="display:inline"
       id="THUMBR"
       transform="matrix(-0.23481161,0,0,-0.23481161,168.51444,213.45527)">
      <path
         id="RPAD"
         d="m 425.65443,717.63105 a 30.417901,30.037681 0 0 1 -30.41791,30.03767 30.417901,30.037681 0 0 1 -30.4179,-30.03767 30.417901,30.037681 0 0 1 30.4179,-30.03769 30.417901,30.037681 0 0 1 30.41791,30.03769 z"
         style="color:#000000;display:inline;overflow:visible;visibility:visible;opacity:1;fill:#000000;fill-opacity:0.182266;fill-rule:evenodd;stroke:#000000;stroke-width:1.05657;stroke-linecap:butt;stroke-linejoin:miter;stroke-miterlimit:4;stroke-dasharray:none;stroke-dashoffset:0;stroke-opacity:1;marker:none;enable-background:accumulate"
         inkscape:connector-curvature="0"
         inkscape:label="#path4168-1-3" />
      <circle
         r="18.731649"
         cy="717.87646"
         cx="396.04147"
         id="RIGHT"
         style="color:#000000;display:inline;overflow:visible;visibility:visible;opacity:1;fill:#000000;fill-opacity:0.211823;fill-rule:evenodd;stroke:#000000;stroke-width:0.919121;stroke-linecap:butt;stroke-linejoin:miter;stroke-miterlimit:4;stroke-dasharray:none;stroke-dashoffset:0;stroke-opacity:1;marker:none;enable-background:accumulate"
         inkscape:label="#RPAD" />
    </g>
    <g
       style="display:inline"
       id="THUMBR-5"
       transform="matrix(-0.23481161,0,0,-0.23481161,135.17804,213.42827)">
      <path
         id="RPAD-3"
         d="m 425.65443,717.63105 a 30.417901,30.037681 0 0 1 -30.41791,30.03767 30.417901,30.037681 0 0 1 -30.4179,-30.03767 30.417901,30.037681 0 0 1 30.4179,-30.03769 30.417901,30.037681 0 0 1 30.41791,30.03769 z"
         style="color:#000000;display:inline;overflow:visible;visibility:visible;opacity:1;fill:#000000;fill-opacity:0.182266;fill-rule:evenodd;stroke:#000000;stroke-width:1.05657;stroke-linecap:butt;stroke-linejoin:miter;stroke-miterlimit:4;stroke-dasharray:none;stroke-dashoffset:0;stroke-opacity:1;marker:none;enable-background:accumulate"
         inkscape:connector-curvature="0"
         inkscape:label="#path4168-1-3" />
      <circle
         r="18.731649"
         cy="717.87646"
         cx="396.04147"
         id="RIGHT-5"
         style="color:#000000;display:inline;overflow:visible;visibility:visible;opacity:1;fill:#000000;fill-opacity:0.211823;fill-rule:evenodd;stroke:#000000;stroke-width:0.919121;stroke-linecap:butt;stroke-linejoin:miter;stroke-miterlimit:4;stroke-dasharray:none;stroke-dashoffset:0;stroke-opacity:1;marker:none;enable-background:accumulate"
         inkscape:label="#RPAD" />
    </g>
    <g
       id="g1981">
      <g
         id="g1949"
         transform="translate(0.05311253,0.01705402)">
        <path
           id="path1925"
           style="opacity:1;fill:#000000;fill-opacity:0.32;stroke:none;stroke-width:0.4572;stroke-miterlimit:4;stroke-dasharray:none;stroke-opacity:0.32"
           inkscape:transform-center-x="-0.10414289"
           inkscape:transform-center-y="-0.18633913"
           d="M 27.27175,36.765633 26.478,37.506467 25.68425,36.765633 Z"
           sodipodi:nodetypes="cccc" />
        <path
           id="path1944"
           style="fill:none;stroke:#000000;stroke-width:0.4572;stroke-linecap:butt;stroke-linejoin:miter;stroke-miterlimit:4;stroke-dasharray:none;stroke-opacity:0.32"
           d="m 24.45784,39.031013 c -0.571964,-0.28834 -0.8808,-0.662792 -0.96759,-1.133325 -0.06534,-0.354235 -0.0083,-3.133147 0.250672,-3.616016 0.259741,-0.484339 2.28416,-2.392365 2.28416,-2.392365 h 0.906294 c 0,0 2.024419,1.908026 2.28416,2.392365 0.258972,0.482869 0.316012,3.261781 0.250672,3.616016 -0.08679,0.470533 -0.395626,0.844985 -0.96759,1.133325 -0.571963,0.288336 -1.452812,0.249496 -2.020389,0.249496 -0.567577,0 -1.448426,0.03884 -2.020389,-0.249496 z"
           sodipodi:nodetypes="ssccccsszs" />
      </g>
      <g
         id="g1955"
         transform="matrix(1,0,0,-1,0.05311253,61.101348)">
        <path
           id="path1951"
           style="opacity:1;fill:#000000;fill-opacity:0.32;stroke:none;stroke-width:0.4572;stroke-miterlimit:4;stroke-dasharray:none;stroke-opacity:0.32"
           inkscape:transform-center-x="-0.10414289"
           inkscape:transform-center-y="-0.18633913"
           d="M 27.27175,36.765633 26.478,37.506467 25.68425,36.765633 Z"
           sodipodi:nodetypes="cccc" />
        <path
           id="path1953"
           style="fill:none;stroke:#000000;stroke-width:0.4572;stroke-linecap:butt;stroke-linejoin:miter;stroke-miterlimit:4;stroke-dasharray:none;stroke-opacity:0.32"
           d="m 24.45784,39.031013 c -0.571964,-0.28834 -0.8808,-0.662792 -0.96759,-1.133325 -0.06534,-0.354235 -0.0083,-3.133147 0.250672,-3.616016 0.259741,-0.484339 2.28416,-2.392365 2.28416,-2.392365 h 0.906294 c 0,0 2.024419,1.908026 2.28416,2.392365 0.258972,0.482869 0.316012,3.261781 0.250672,3.616016 -0.08679,0.470533 -0.395626,0.844985 -0.96759,1.133325 -0.571963,0.288336 -1.452812,0.249496 -2.020389,0.249496 -0.567577,0 -1.448426,0.03884 -2.020389,-0.249496 z"
           sodipodi:nodetypes="ssccccsszs" />
      </g>
      <g
         id="g1961"
         transform="rotate(90,26.496258,30.57723)">
        <path
           id="path1957"
           style="opacity:1;fill:#000000;fill-opacity:0.32;stroke:none;stroke-width:0.4572;stroke-miterlimit:4;stroke-dasharray:none;stroke-opacity:0.32"
           inkscape:transform-center-x="-0.10414289"
           inkscape:transform-center-y="-0.18633913"
           d="M 27.27175,36.765633 26.478,37.506467 25.68425,36.765633 Z"
           sodipodi:nodetypes="cccc" />
        <path
           id="path1959"
           style="fill:none;stroke:#000000;stroke-width:0.4572;stroke-linecap:butt;stroke-linejoin:miter;stroke-miterlimit:4;stroke-dasharray:none;stroke-opacity:0.32"
           d="m 24.45784,39.031013 c -0.571964,-0.28834 -0.8808,-0.662792 -0.96759,-1.133325 -0.06534,-0.354235 -0.0083,-3.133147 0.250672,-3.616016 0.259741,-0.484339 2.28416,-2.392365 2.28416,-2.392365 h 0.906294 c 0,0 2.024419,1.908026 2.28416,2.392365 0.258972,0.482869 0.316012,3.261781 0.250672,3.616016 -0.08679,0.470533 -0.395626,0.844985 -0.96759,1.133325 -0.571963,0.288336 -1.452812,0.249496 -2.020389,0.249496 -0.567577,0 -1.448426,0.03884 -2.020389,-0.249496 z"
           sodipodi:nodetypes="ssccccsszs" />
      </g>
      <g
         id="g1967"
         transform="matrix(0,1,1,0,-4.0108055,4.080972)">
        <path
           id="path1963"
           style="opacity:1;fill:#000000;fill-opacity:0.32;stroke:none;stroke-width:0.4572;stroke-miterlimit:4;stroke-dasharray:none;stroke-opacity:0.32"
           inkscape:transform-center-x="-0.10414289"
           inkscape:transform-center-y="-0.18633913"
           d="M 27.27175,36.765633 26.478,37.506467 25.68425,36.765633 Z"
           sodipodi:nodetypes="cccc" />
        <path
           id="path1965"
           style="fill:none;stroke:#000000;stroke-width:0.4572;stroke-linecap:butt;stroke-linejoin:miter;stroke-miterlimit:4;stroke-dasharray:none;stroke-opacity:0.32"
           d="m 24.45784,39.031013 c -0.571964,-0.28834 -0.8808,-0.662792 -0.96759,-1.133325 -0.06534,-0.354235 -0.0083,-3.133147 0.250672,-3.616016 0.259741,-0.484339 2.28416,-2.392365 2.28416,-2.392365 h 0.906294 c 0,0 2.024419,1.908026 2.28416,2.392365 0.258972,0.482869 0.316012,3.261781 0.250672,3.616016 -0.08679,0.470533 -0.395626,0.844985 -0.96759,1.133325 -0.571963,0.288336 -1.452812,0.249496 -2.020389,0.249496 -0.567577,0 -1.448426,0.03884 -2.020389,-0.249496 z"
           sodipodi:nodetypes="ssccccsszs" />
      </g>
    </g>
    <g
       id="g2078">
      <rect
         style="opacity:1;fill:none;fill-opacity:0.32;stroke:#000000;stroke-width:0.452712;stroke-miterlimit:4;stroke-dasharray:none;stroke-opacity:0.32"
         id="rect1983"
         width="2.5492058"
         height="4.8000002"
         x="28.723042"
         y="23.508963"
         rx="1.2746029"
         ry="1.3"
         transform="rotate(-11.858464)" />
      <rect
         style="opacity:1;fill:none;fill-opacity:0.32;stroke:#000000;stroke-width:0.452712;stroke-miterlimit:4;stroke-dasharray:none;stroke-opacity:0.32"
         id="rect1985"
         width="2.5492058"
         height="4.8000002"
         x="-86.76886"
         y="-0.74156857"
         rx="1.2746029"
         ry="1.3"
         transform="matrix(-0.97865821,-0.20549477,-0.20549477,0.97865821,0,0)" />
    </g>
    <g
       id="g2074">
      <g
         id="g2048">
        <circle
           style="opacity:1;fill:none;fill-opacity:0.32;stroke:#000000;stroke-width:0.4572;stroke-miterlimit:4;stroke-dasharray:none;stroke-opacity:0.32"
           id="path1987"
           cx="83.809105"
           cy="30.581278"
           r="3.4855151" />
        <rect
           style="opacity:1;fill:none;fill-opacity:0.32;stroke:#000000;stroke-width:0.4572;stroke-miterlimit:4;stroke-dasharray:none;stroke-opacity:0.32"
           id="rect2008"
           width="3.4000001"
           height="3.4000001"
           x="82.109108"
           y="28.881277" />
      </g>
      <g
         id="g2056">
        <circle
           style="opacity:1;fill:none;fill-opacity:0.32;stroke:#000000;stroke-width:0.4572;stroke-miterlimit:4;stroke-dasharray:none;stroke-opacity:0.32"
           id="path1987-6"
           cx="99.108002"
           cy="30.581278"
           r="3.4855151" />
        <circle
           style="opacity:1;fill:none;fill-opacity:0.32;stroke:#000000;stroke-width:0.4572;stroke-miterlimit:4;stroke-dasharray:none;stroke-opacity:0.32"
           id="path2010"
           cx="99.108002"
           cy="30.581278"
           r="2" />
      </g>
      <g
         id="g2052">
        <circle
           style="opacity:1;fill:none;fill-opacity:0.32;stroke:#000000;stroke-width:0.4572;stroke-miterlimit:4;stroke-dasharray:none;stroke-opacity:0.32"
           id="circle2004"
           cx="22.931829"
           cy="-91.458557"
           r="3.4855151"
           transform="rotate(90)" />
        <path
           sodipodi:type="star"
           style="opacity:1;fill:none;fill-opacity:0.32;stroke:#000000;stroke-width:0.4572;stroke-miterlimit:4;stroke-dasharray:none;stroke-opacity:0.32"
           id="path2020"
           sodipodi:sides="3"
           sodipodi:cx="91.458557"
           sodipodi:cy="22.952213"
           sodipodi:r1="2.004174"
           sodipodi:r2="1.002087"
           sodipodi:arg1="0.52359878"
           sodipodi:arg2="1.5707963"
           inkscape:flatsided="false"
           inkscape:rounded="0"
           inkscape:randomized="0"
           d="m 93.194223,23.9543 -1.735666,0 -1.735665,0 0.867832,-1.50313 0.867833,-1.503131 0.867833,1.503131 z"
           inkscape:transform-center-x="1.1533386e-06"
           inkscape:transform-center-y="-0.50104379" />
      </g>
      <g
         id="g2060">
        <circle
           style="opacity:1;fill:none;fill-opacity:0.32;stroke:#000000;stroke-width:0.4572;stroke-miterlimit:4;stroke-dasharray:none;stroke-opacity:0.32"
           id="circle2006"
           cx="38.230728"
           cy="-91.458557"
           r="3.4855151"
           transform="rotate(90)" />
        <path
           id="rect2008-2"
           style="opacity:1;fill:none;fill-opacity:0.32;stroke:#000000;stroke-width:0.4572;stroke-miterlimit:4;stroke-dasharray:none;stroke-opacity:0.32"
           d="m 93.15856,36.530727 -1.698754,1.7 1.698754,1.7 m -3.4,0 1.701246,-1.7 -1.701246,-1.7"
           sodipodi:nodetypes="cccccc" />
      </g>
    </g>
    <rect
       style="opacity:1;fill:none;fill-opacity:0.32;stroke:#000000;stroke-width:0.465721;stroke-miterlimit:4;stroke-dasharray:none;stroke-opacity:0.32"
       id="rect2038"
       width="5.0162005"
       height="1.1914792"
       x="56.513924"
       y="49.825619"
       rx="0.62702507"
       ry="0.5957396" />
    <path
       style="fill:none;stroke:#000000;stroke-width:0.254;stroke-linecap:butt;stroke-linejoin:round;stroke-miterlimit:4;stroke-dasharray:none;stroke-opacity:0.32"
       d="m 58.008109,44.131436 v -2.850581 l 2.174288,0.663052 0.475319,0.372179 0.252243,0.541154 0.0041,1.571989 -1.39614,0.03022 0.01366,-1.792428 -0.10621,-0.04157 0.02885,3.08432 1.736993,-0.569371 -1.725134,0.481597 -6.55e-4,-0.950011 1.452834,-0.225405 1.01302,0.202048 0.336135,0.221902 0.145497,0.282678 -0.05375,0.285993 -0.273387,0.225931 -2.760792,0.976715 -1.253497,-0.42857 -0.0633,-2.081836 0.02995,0.984947 -1.073976,0.349719 1.075646,-0.231077 0.02547,0.773899 -1.283116,0.07856 -0.837559,-0.252698 -0.238615,-0.21055 -0.122351,-0.302231 0.158925,-0.29595 0.453636,-0.244808 z"
       id="path2040"
       sodipodi:nodetypes="ccccccccccccccccccccccccccccccccc" />
  </g>
</svg>
